<?xml version="1.0" encoding="UTF-8" standalone="no"?>
<!-- Created with Inkscape (http://www.inkscape.org/) -->

<svg
   width="1200"
   height="1200"
   viewBox="0 0 317.5 317.5"
   version="1.1"
   id="svg1"
   xml:space="preserve"
   inkscape:export-filename="finish_background.png"
   inkscape:export-xdpi="96"
   inkscape:export-ydpi="96"
   inkscape:version="1.3.2 (091e20e, 2023-11-25)"
   sodipodi:docname="flash-light.svg"
   xmlns:inkscape="http://www.inkscape.org/namespaces/inkscape"
   xmlns:sodipodi="http://sodipodi.sourceforge.net/DTD/sodipodi-0.dtd"
   xmlns:xlink="http://www.w3.org/1999/xlink"
   xmlns="http://www.w3.org/2000/svg"
   xmlns:svg="http://www.w3.org/2000/svg"><sodipodi:namedview
     id="namedview1"
     pagecolor="#505050"
     bordercolor="#eeeeee"
     borderopacity="1"
     inkscape:showpageshadow="0"
     inkscape:pageopacity="0"
     inkscape:pagecheckerboard="0"
     inkscape:deskcolor="#505050"
     inkscape:document-units="mm"
     inkscape:zoom="0.30954377"
     inkscape:cx="717.18451"
     inkscape:cy="565.34815"
     inkscape:window-width="1440"
     inkscape:window-height="765"
     inkscape:window-x="-1"
     inkscape:window-y="25"
     inkscape:window-maximized="0"
     inkscape:current-layer="layer1" /><defs
     id="defs1"><linearGradient
       id="linearGradient4"
       inkscape:collect="always"><stop
         style="stop-color:#ffffff;stop-opacity:0.46348315;"
         offset="0"
         id="stop4" /><stop
         style="stop-color:#ffffff;stop-opacity:0;"
         offset="1"
         id="stop5" /></linearGradient><clipPath
       clipPathUnits="userSpaceOnUse"
       id="clipPath19"><path
         id="path19"
         style="fill:#000000;fill-opacity:1;stroke-width:4.48784"
         d="m -206.10318,-4.5118695 c -0.009,0.00188 -0.0244,0.054131 -0.0512,0.147278 -0.0342,0.1190125 -0.0988,0.2458519 -0.14366,0.2821532 -0.0449,0.036301 -0.0988,0.260717 -0.11938,0.4986777 -0.0205,0.2379609 -0.0764,0.4784087 -0.12454,0.5338175 -0.0481,0.055409 -0.10647,0.2950506 -0.1297,0.5327841 -0.0369,0.3780565 -0.0673,0.4563048 -0.2434,0.622701 -0.16026,0.1514568 -0.27196,0.1959791 -0.54673,0.2196248 -0.18983,0.016336 -0.40859,0.071643 -0.48628,0.1224732 -0.0786,0.051387 -0.37951,0.1106325 -0.67799,0.1338419 -0.5048,0.039251 -0.65071,0.1004103 -0.65423,0.2733684 -5.3e-4,0.025886 0.14695,0.049281 0.32815,0.052193 0.53528,0.0086 1.05714,0.090801 1.10897,0.17466628 0.0266,0.0429795 0.20891,0.0949312 0.40566,0.11523845 0.2291,0.0236456 0.38512,0.0744249 0.43357,0.14159344 0.0416,0.0576854 0.1227,0.1227034 0.18035,0.14417725 0.0734,0.0273455 0.1181,0.14814883 0.14883,0.40359293 0.0241,0.20059472 0.0852,0.41188902 0.13591,0.46973876 0.0507,0.0578498 0.10794,0.28403209 0.12712,0.50229495 0.0206,0.23440674 0.0698,0.41744724 0.11989,0.44700114 0.0466,0.027518 0.10376,0.168624 0.12712,0.3136759 l 0.0424,0.2635498 0.0506,-0.1881022 c 0.0279,-0.1035023 0.0896,-0.2165081 0.13694,-0.2511475 0.0546,-0.039897 0.0977,-0.2400836 0.11731,-0.54570305 0.019,-0.29669769 0.0705,-0.54336823 0.13436,-0.64078778 0.0571,-0.087125 0.10387,-0.26789093 0.10387,-0.40204264 0,-0.32579175 0.28479,-0.63915099 0.58136,-0.63975424 0.11187,-2.2741e-4 0.28581,-0.0545222 0.38654,-0.12092287 0.11488,-0.0757324 0.35611,-0.13702552 0.6475,-0.16433102 0.27187,-0.025476 0.58486,-0.1018585 0.755,-0.1839681 l 0.29093,-0.1400431 -0.50952,-0.029456 c -0.30821,-0.017841 -0.56784,-0.067972 -0.65733,-0.1266073 -0.0845,-0.055333 -0.3364,-0.1077935 -0.58704,-0.1219563 -0.32583,-0.018411 -0.47413,-0.056606 -0.57465,-0.1488282 -0.0745,-0.068349 -0.17985,-0.160652 -0.23409,-0.2051554 -0.0542,-0.044503 -0.0987,-0.1583307 -0.0987,-0.2532145 0,-0.094884 -0.0565,-0.2837012 -0.12558,-0.419096 -0.0847,-0.1660548 -0.12505,-0.3700491 -0.12505,-0.6268352 0,-0.3030225 -0.0257,-0.4022852 -0.12558,-0.4878255 -0.0942,-0.080645 -0.12702,-0.1899991 -0.13126,-0.4376992 -0.003,-0.1826783 -0.005,-0.2633874 -0.0165,-0.2609662 z m -101.78863,3.91242289 c -0.11912,0 -0.34777,0.49140468 -0.34777,0.74724121 0,0.10557897 -0.0717,0.28726848 -0.15968,0.40359294 -0.088,0.11632459 -0.16065,0.41702662 -0.1633,0.66817626 -0.003,0.2511496 -0.0457,0.4823834 -0.0972,0.5141805 -0.0514,0.031797 -0.12112,0.3588965 -0.15451,0.7270874 -0.0334,0.3681912 -0.11383,0.7225686 -0.17881,0.7875489 -0.065,0.064981 -0.1188,0.2678441 -0.12144,0.4506185 -0.004,0.3486486 -0.21251,0.7136516 -0.40823,0.7136516 -0.0633,0 -0.13157,0.036705 -0.15142,0.081649 -0.0584,0.1313087 -1.12464,0.4630208 -1.48828,0.4630208 -0.18317,0 -0.36293,0.049111 -0.39997,0.1090375 -0.037,0.059926 -0.23058,0.1090371 -0.42995,0.1090371 -0.19933,0 -0.50271,0.07326 -0.67437,0.162781 -0.17163,0.08952 -0.44439,0.1629269 -0.60566,0.1632973 -0.16123,3.705e-4 -0.32313,0.050145 -0.36017,0.1100709 -0.037,0.059926 -0.16706,0.1085205 -0.28837,0.1085205 -0.38955,0 -0.14867,0.2696789 0.29715,0.3327961 0.23482,0.033246 0.53417,0.1190606 0.66506,0.1906862 0.13089,0.071625 0.46175,0.1302245 0.73535,0.1302245 0.27361,0 0.49716,0.049112 0.49716,0.1090372 0,0.059926 0.24236,0.1090374 0.53845,0.1090374 0.2961,0 0.56483,0.042719 0.59687,0.094568 0.0321,0.051848 0.23159,0.1222148 0.44337,0.1565797 0.53094,0.086159 1.03663,0.4659481 1.03663,0.7787637 0,0.1388843 0.0733,0.3931759 0.1628,0.5648235 0.0895,0.1716466 0.16328,0.4929815 0.16328,0.7141681 0,0.2211872 0.0497,0.4327022 0.10956,0.4697389 0.0599,0.037036 0.10904,0.2507236 0.10904,0.4749064 0,0.2241825 0.0527,0.4604475 0.11731,0.5250335 0.10628,0.106277 0.22249,0.468316 0.39532,1.233516 0.0338,0.149815 0.11258,0.337032 0.17518,0.415995 0.14419,0.181935 0.35552,-0.172506 0.45889,-0.769462 0.0388,-0.224409 0.1153,-0.435925 0.17002,-0.46974 0.0547,-0.03381 0.0997,-0.276391 0.0997,-0.538985 0,-0.2625937 0.0491,-0.5076325 0.10904,-0.5446689 0.0599,-0.037037 0.10956,-0.2480355 0.10956,-0.4692219 0,-0.2211871 0.0738,-0.5430385 0.1633,-0.714685 0.0895,-0.1716477 0.16277,-0.4713891 0.16277,-0.6661095 0,-0.4451842 0.4272,-0.8965959 0.93949,-0.9927042 0.2037,-0.038212 0.39711,-0.1127485 0.42994,-0.1658813 0.0328,-0.053133 0.22572,-0.096635 0.42839,-0.096635 0.20267,0 0.3986,-0.049111 0.43564,-0.1090374 0.037,-0.059925 0.24855,-0.1105379 0.46974,-0.1126546 0.22116,-0.00212 0.52456,-0.074038 0.67437,-0.15968 0.14983,-0.085642 0.42891,-0.1575636 0.62013,-0.1596802 0.19124,-0.00212 0.37793,-0.052729 0.41497,-0.1126546 0.037,-0.059926 0.18704,-0.1090374 0.3333,-0.1090374 0.16377,0 0.26614,-0.062659 0.26614,-0.1632974 0,-0.1047195 -0.10774,-0.1649712 -0.29972,-0.1674318 -0.16481,-0.00212 -0.42225,-0.074038 -0.57205,-0.15968 -0.14981,-0.085643 -0.45321,-0.1570469 -0.6744,-0.1591636 -0.22119,-0.00212 -0.4327,-0.053245 -0.46974,-0.1131712 -0.037,-0.059926 -0.33118,-0.1090375 -0.65371,-0.1090375 -0.32253,0 -0.61275,-0.042513 -0.64492,-0.094568 -0.0322,-0.052054 -0.2576,-0.1264034 -0.50125,-0.1653646 -0.80082,-0.1280522 -1.18714,-0.4552997 -1.19269,-1.0107909 -0.003,-0.1897657 -0.0572,-0.3630501 -0.12301,-0.3849893 -0.0658,-0.021939 -0.14626,-0.2724947 -0.17827,-0.5565553 -0.032,-0.2840604 -0.10047,-0.542518 -0.15246,-0.5746419 -0.052,-0.032124 -0.0946,-0.2280974 -0.0946,-0.4351156 0,-0.207018 -0.0464,-0.4612825 -0.10282,-0.5653402 -0.0564,-0.1040577 -0.18401,-0.48328551 -0.28371,-0.84284259 -0.0997,-0.35955703 -0.19896,-0.71522492 -0.22066,-0.79013264 -0.0217,-0.0749077 -0.0827,-0.13642578 -0.13488,-0.13642578 z M -314.0873,25.678536 c -0.019,-0.0019 -0.0368,-9.2e-5 -0.0522,0.0052 -0.30158,0.102985 -0.45064,1.874318 -0.45064,5.349546 0,2.857722 -0.14409,5.418214 -0.31988,5.689573 -0.17579,0.271357 -1.53419,1.155893 -3.01893,1.965772 -7.23235,3.94506 -7.26537,4.405927 -0.29146,4.052467 l 4.9041,-0.248565 1.21079,1.296045 c 0.12729,0.136279 0.27535,0.316013 0.43098,0.513149 -0.39783,0.461934 0.38709,4.97032 1.33324,7.423835 0.94974,2.462758 2.72319,5.30555 4.81986,7.725111 16.28738,13.772002 3.4494,3.5568 3.38428,3.991486 0,0.435055 -0.56703,6.421763 -1.15083,12.150164 -0.12959,1.27141 -0.59531,6.004174 -1.03508,10.517704 -3.18981,32.738467 -4.10551,41.942767 -4.18269,42.034117 -0.0343,0.0406 -1.4687,-0.38839 -3.13417,-0.92862 -3.32997,-1.07649 -5.95887,-1.89298 -7.78299,-2.41381 -0.0456,-0.0123 -0.13319,-0.0403 -0.17777,-0.0522 -0.48794,-0.1381 -1.44055,-0.4387 -1.71254,-0.50281 -4.13533,-0.97469 -8.40706,0.24995 -11.43601,3.27887 -1.83348,1.83348 -2.61789,3.46448 -4.33461,9.00978 -0.80881,2.61256 -1.98284,6.39449 -2.60864,8.40414 -6.09237,19.56582 -6.04565,19.36932 -5.3821,22.52679 0.51507,2.45086 1.32496,4.01532 3.05565,5.90404 1.82906,1.99608 3.65217,2.96002 8.17054,4.3186 1.87569,0.56396 4.72575,1.44892 6.33347,1.9668 1.60774,0.51788 4.78655,1.51265 7.06416,2.21072 2.27761,0.69807 6.38831,1.95898 9.13485,2.80189 4.33088,1.32917 5.25721,1.53446 6.97788,1.54668 1.96821,0.014 4.91466,-0.66696 5.15628,-1.16324 0.15327,-0.0697 0.29858,-0.15196 0.44802,-0.22789 0.53969,-0.077 2.12495,-1.17263 3.21376,-2.27428 1.09498,-1.1079 1.83536,-2.26179 2.54042,-4.01784 0.28192,-0.52231 0.4831,-0.8593 0.42373,-0.64751 -0.0891,0.31786 -0.3126,0.87361 -0.49659,1.23507 -0.18392,0.36146 -0.27771,0.71398 -0.20826,0.78341 0.0694,0.0694 1.50755,0.25807 3.19567,0.41962 3.59822,0.34433 10.01659,0.97825 19.82927,1.95853 6.91772,0.69107 17.16726,1.68404 20.55431,1.9911 0.68191,0.0618 1.00249,0.074 1.23713,0.0589 0.0537,0.92117 0.10906,1.87703 0.0703,2.77709 -0.59839,0.61719 -2.00688,1.84453 -3.13004,2.72748 -1.12314,0.88295 -2.27858,1.90473 -2.5678,2.27066 l -0.52607,0.6656 0.5886,0.0729 c 0.57896,0.0719 3.00864,-0.45318 6.64197,-1.43557 l 1.8464,-0.49971 0.88573,0.61391 c 0.48707,0.33754 1.65972,1.59364 2.60605,2.79156 0.94632,1.19791 2.20852,2.59716 2.80499,3.10886 0.59647,0.5117 1.14807,0.93017 1.22577,0.93017 0.26554,0 -0.18884,-2.81295 -0.92656,-5.73505 -0.40538,-1.60567 -0.73691,-3.23726 -0.73691,-3.62561 l 1.84899,-0.38603 -1.46141,0.71159 c 0.15406,0.1856 0.2015,0.41551 0.10593,0.51108 -0.26835,0.26831 -0.23395,0.2635 9.15862,-1.27693 4.86472,-0.7978 8.94421,-1.45156 9.06508,-1.45262 0.0249,-2e-4 0.0254,-0.086 0.0424,-0.11317 0.34119,0.009 0.68045,0.009 0.88367,-0.0124 1.74418,-0.18397 2.47798,0.12383 4.61884,-0.0935 0.75515,-0.0767 2.06888,-0.87489 3.92586,-1.7756 0.70142,-0.92354 1.9008,-0.85396 2.69854,-1.60662 0.0201,-0.0326 0.10931,-0.0616 0.22996,-0.0837 0.011,-0.002 0.018,-0.003 0.0289,-0.005 0.12518,-0.0206 0.28035,-0.0346 0.44545,-0.0346 0.34552,0 0.79786,-0.0508 1.00511,-0.11317 0.20724,-0.0624 0.76321,-0.17761 1.23558,-0.25631 0.4724,-0.0787 1.16259,-0.19521 1.53376,-0.2589 1.84401,-0.31645 3.60263,-0.57392 4.60126,-0.67386 0.40492,-0.0405 0.78856,-0.12331 0.85267,-0.18346 0.0641,-0.0601 0.39841,-0.10903 0.74259,-0.10903 0.34417,0 0.67796,-0.0506 0.74207,-0.11214 0.0641,-0.0616 0.42051,-0.13956 0.79168,-0.17363 0.37114,-0.0341 1.17185,-0.15194 1.77922,-0.262 1.03685,-0.1879 1.4861,-0.26468 3.31246,-0.56534 1.66074,-0.27341 2.36791,-0.37401 3.06752,-0.43667 0.40491,-0.0363 0.78906,-0.11648 0.85317,-0.17828 0.0641,-0.0618 0.43319,-0.11266 0.82063,-0.11266 0.38743,0 0.7386,-0.055 0.78031,-0.12247 0.0417,-0.0675 0.25233,-0.12324 0.46767,-0.12351 0.21535,-2.6e-4 0.58442,-0.0541 0.82062,-0.11937 0.42347,-0.11707 1.38405,-0.27969 2.94504,-0.49868 0.74765,-0.10488 1.18175,-0.17365 3.098,-0.48937 0.98679,-0.16258 2.0488,-0.32892 2.97554,-0.46612 0.83313,-0.12335 1.67471,-0.39134 2.42207,-0.77153 0.11718,-0.0596 0.29628,-0.10852 0.39842,-0.10852 0.10215,0 0.18604,-0.055 0.18604,-0.12248 0,-0.0675 0.10998,-0.12247 0.24495,-0.12247 0.13497,0 0.24546,-0.0462 0.24546,-0.10232 0,-0.0561 0.15189,-0.17916 0.33744,-0.27388 0.41161,-0.2101 2.23966,-1.99426 2.23966,-2.18592 0,-0.0757 0.0484,-0.13746 0.10801,-0.13746 0.0596,0 0.14089,-0.0969 0.18035,-0.21497 0.0394,-0.1181 0.23928,-0.51228 0.4439,-0.87592 0.20461,-0.3636 0.37207,-0.73596 0.37207,-0.82785 0,-0.0919 0.055,-0.16743 0.12247,-0.16743 0.0675,0 0.12247,-0.18999 0.12247,-0.4222 0,-0.23222 0.0555,-0.45594 0.12299,-0.49764 0.16166,-0.0999 0.16166,-2.72266 0,-2.82257 -0.0675,-0.0417 -0.12299,-0.23819 -0.12299,-0.43667 0,-0.19847 -0.055,-0.3607 -0.12247,-0.3607 -0.0675,0 -0.12247,-0.058 -0.12247,-0.12867 0,-0.25293 -0.86165,-1.46903 -1.51464,-2.13786 -0.55176,-0.56514 -0.52982,-0.44576 -0.7245,-0.45372 -0.83499,-0.0341 -0.12201,-0.26444 -0.0517,-0.75706 0.058,-0.40601 0.17981,-0.86866 0.19379,-1.24023 0.0465,-0.0358 0.12792,-0.0773 0.14728,-0.10852 0.1706,-0.27547 0.36686,-0.67708 0.45733,-0.87953 0.0905,-0.20246 0.21509,-0.46418 0.27647,-0.58136 0.0614,-0.11719 0.11162,-0.32404 0.11162,-0.45992 0,-0.13589 0.055,-0.24702 0.12248,-0.24702 0.0675,0 0.12247,-0.13502 0.12247,-0.29972 0,-0.16473 0.0497,-0.3296 0.11007,-0.3669 0.0603,-0.0373 0.13984,-0.27568 0.17673,-0.52917 0.0369,-0.25349 0.12995,-0.81967 0.20671,-1.25832 0.16379,-0.93608 0.0806,-3.41992 -0.13539,-4.04885 -0.39947,-1.1628 -0.93759,-2.06998 -1.69964,-2.86339 -0.76888,-0.80052 -2.19168,-1.92236 -2.4381,-1.92236 -0.064,0 -0.18615,-0.0834 -0.2713,-0.18604 -0.12777,-0.15395 -0.0848,-0.33088 0.24547,-1.01234 1.07729,-2.22273 1.44414,-4.01075 1.23506,-6.01617 -0.0981,-0.94054 -0.17004,-1.18345 -0.66559,-2.23294 -0.55958,-1.18508 -1.82389,-2.37205 -3.3321,-3.12901 -0.53784,-0.26994 -0.99605,-0.53229 -1.01854,-0.58291 -0.0225,-0.0506 -0.16356,-0.092 -0.31316,-0.092 -0.14959,0 -0.3259,-0.0541 -0.3917,-0.11989 -0.0539,-0.0539 -0.28004,-0.0798 -0.39946,0.004 0.13835,-0.4425 0.36256,-1.78513 -0.62477,-1.63556 0.2717,-0.25282 0.54878,-0.49693 0.79943,-0.78445 0.80438,-0.92267 1.14721,-1.44302 1.15084,-1.60559 0.002,-0.0844 0.0586,-0.15296 0.12609,-0.15296 0.0675,0 0.12299,-0.0839 0.12299,-0.18604 0,-0.10214 0.0489,-0.28175 0.10852,-0.39894 0.45813,-0.90058 0.62787,-1.65433 0.62787,-2.78949 0,-1.30413 -0.2156,-2.09669 -0.88987,-3.27422 -0.63093,-1.10177 -3.04407,-3.26518 -4.26383,-3.82251 -0.10122,-0.0462 -0.34944,-0.18955 -0.5519,-0.31884 -0.20243,-0.1293 -0.46481,-0.23951 -0.58291,-0.24443 -0.0532,-0.002 -0.0993,-0.0182 -0.13694,-0.0382 -0.003,-0.002 -0.0163,-0.009 -0.0191,-0.0103 -0.0344,-0.0232 -0.0589,-0.0518 -0.0589,-0.0832 0,-0.0675 -0.0834,-0.12247 -0.18552,-0.12247 -0.10214,0 -0.29538,-0.055 -0.42943,-0.12247 l -0.48783,-0.24546 c -0.13405,-0.0675 -0.32792,-0.12299 -0.43098,-0.12299 -0.10306,0 -0.28331,-0.053 -0.40049,-0.11783 -0.29237,-0.16172 -2.18835,-0.63931 -2.7895,-0.7028 -0.26994,-0.0285 -0.60142,-0.10039 -0.73639,-0.15916 -0.64365,-0.28023 -5.24448,-0.3341 -7.46052,-0.16433 h -0.14676 l -0.0873,0.0186 c -0.41265,0.0378 -0.75477,0.0814 -0.89452,0.13797 -0.13496,0.0547 -0.79743,0.19298 -1.47226,0.30748 l -0.84129,-0.0729 c 1.0807,-0.20517 1.97963,-0.37294 1.99781,-0.37311 0.0952,-7.9e-4 0.22293,-0.66407 0.39119,-1.86862 0.0727,-0.50035 0.14452,-1.16998 0.22325,-1.83038 0.0949,-0.78057 0.16093,-1.22497 0.28783,-2.36264 0.32833,-2.9435 0.69562,-5.5355 0.81597,-5.76038 0.003,-0.006 0.008,-0.0679 0.0114,-0.076 v -5.3e-4 c 0.14729,-0.11217 0.30049,-1.74163 0.37879,-3.66334 0.0186,-0.28169 0.0425,-0.49017 0.0589,-0.7829 0.35554,-6.346993 1.46893,-18.546497 2.6541,-29.080392 0.36743,-3.265737 0.68457,-6.321896 0.91261,-8.730216 0.1616,-1.639652 0.26724,-2.920971 0.29817,-3.859713 0.007,-0.152257 0.059,-0.667882 0.0589,-0.761711 -5.3e-4,-0.336963 -0.0438,-0.785659 -0.11989,-1.299144 -0.0685,-0.624306 -0.18255,-1.202735 -0.34261,-1.892909 -0.22097,-0.952785 -0.49436,-1.856917 -0.80461,-2.72593 -0.0514,-0.15194 -0.0885,-0.353986 -0.14056,-0.495062 -0.48509,-1.314151 -1.13769,-2.566355 -1.92133,-3.731554 -1.08205,-1.666356 -2.41933,-3.067267 -3.95479,-4.244186 -0.16768,-0.131895 -0.33666,-0.259287 -0.5085,-0.38499 -0.28417,-0.201232 -0.57038,-0.399516 -0.86868,-0.584459 -1.33785,-0.863918 -2.76628,-1.563635 -4.26486,-2.008664 -1.10062,-0.326853 -4.25882,-0.798798 -8.08994,-1.288294 -0.23925,-0.03167 -0.44946,-0.06083 -0.69453,-0.0925 -1.15289,-0.143952 -2.31324,-0.279046 -3.58531,-0.423231 -1.63991,-0.191016 -3.23439,-0.365651 -4.94182,-0.536919 -0.81422,-0.08194 -1.5901,-0.150579 -2.41226,-0.228409 -0.94479,-0.08708 -1.90751,-0.192649 -2.82773,-0.267684 -0.75038,-0.06119 -1.05085,-0.07933 -1.70016,-0.131257 -0.69803,-0.05774 -1.424,-0.133361 -2.10684,-0.185518 -3.48953,-0.266542 -6.4145,-0.527566 -6.49987,-0.580327 -0.045,-0.02782 -0.0912,-0.369726 -0.14262,-0.59118 -0.0313,-0.697656 -0.26335,-1.434078 -0.57361,-2.163175 -0.0639,-0.154633 -0.13547,-0.305847 -0.21084,-0.457853 -0.21833,-0.43697 -0.46939,-0.841724 -0.7612,-1.240751 -0.0665,-0.08926 -0.12941,-0.179461 -0.19947,-0.266133 -0.52297,-0.660498 -1.10065,-1.264902 -1.75648,-1.677416 -3.31481,-2.084991 -7.91483,-1.368605 -10.27017,1.599385 -0.87378,1.101032 -1.39288,2.00429 -1.59525,2.778125 l -0.28629,0.581358 -1.3994,-0.14986 c -0.76956,-0.08246 -3.68776,-0.353131 -6.48487,-0.601514 -2.79713,-0.248383 -8.67694,-0.815232 -13.06641,-1.259872 -4.3893,-0.444638 -8.29032,-0.800359 -8.6687,-0.790649 -0.21405,0.0055 -0.86405,-0.05092 -1.38649,-0.08578 -2.70704,-0.541258 -5.31982,0.08493 -7.7928,1.848466 -0.60971,0.374449 -1.24783,0.751893 -1.35134,0.751893 -0.12181,0 -0.71739,-0.513241 -1.34254,-1.143085 -0.23019,-0.250761 -0.30946,-0.387675 -0.57309,-0.646988 -2.08876,-2.054466 -5.18068,-3.210515 -7.91271,-2.957959 -1.53723,0.142115 -3.73597,0.874633 -4.79764,1.569415 -1.15123,0.587441 -1.42372,0.399 -2.68975,-1.695505 -0.0349,-0.05768 -0.0478,-0.06629 -0.0811,-0.120407 -0.003,-0.0059 -0.005,-0.008 -0.008,-0.01394 -0.81791,-1.46158 -1.37515,-2.323381 -1.44074,-2.259812 -0.022,0.02119 0.0109,0.145098 0.10697,0.383958 0.10772,0.267941 0.20312,0.679178 0.21239,0.913638 2.1e-4,0.0052 0.003,0.0082 0.003,0.01344 -0.24643,-0.572037 -0.41021,-1.0692 -0.41701,-1.351338 -0.0214,-0.888826 -2.3391,-4.287976 -2.93214,-4.346505 z m 128.55134,3.383258 c -0.31933,2.38e-4 -0.63781,0.02764 -0.87902,0.08216 -0.2082,0.04706 -0.59445,0.103881 -0.85834,0.126609 -0.28263,0.02434 -0.52125,0.07782 -0.58033,0.129706 -0.0552,0.04845 -0.21692,0.102548 -0.35967,0.120407 -0.14275,0.01786 -0.3408,0.07966 -0.43976,0.137459 -0.099,0.0578 -0.27856,0.122798 -0.39895,0.144177 -0.12038,0.02138 -0.25132,0.07784 -0.29093,0.125574 -0.0396,0.04773 -0.16145,0.103412 -0.2713,0.124023 -0.10986,0.02061 -0.21393,0.07383 -0.231,0.11834 -0.0171,0.04451 -0.14024,0.110776 -0.27389,0.146762 -0.13364,0.03599 -0.24339,0.09068 -0.24339,0.121954 0,0.03127 -0.0876,0.09368 -0.19482,0.138494 -0.10721,0.04481 -0.23171,0.126278 -0.27699,0.180866 -0.0453,0.05459 -0.10973,0.09922 -0.14314,0.09922 -0.0334,0 -0.12069,0.06066 -0.19379,0.134877 -0.0731,0.07422 -0.21638,0.197485 -0.31832,0.273886 -0.19437,0.145672 -1.10134,1.058651 -1.34152,1.350304 -0.077,0.09344 -0.2007,0.238937 -0.27492,0.323495 -0.0742,0.08456 -0.13488,0.190466 -0.13488,0.235127 0,0.04467 -0.0284,0.08113 -0.0625,0.08113 -0.0342,0 -0.11413,0.121312 -0.17776,0.269751 -0.0636,0.148439 -0.14361,0.270269 -0.17777,0.270269 -0.0342,0 -0.062,0.0501 -0.062,0.11162 0,0.06153 -0.0563,0.183353 -0.12506,0.270785 -0.0688,0.08743 -0.15257,0.259747 -0.18603,0.382921 -0.0335,0.123179 -0.0949,0.264713 -0.13695,0.314193 -0.042,0.04948 -0.0942,0.188124 -0.11575,0.308509 -0.0215,0.120383 -0.0767,0.250391 -0.12248,0.288354 -0.0457,0.03796 -0.10156,0.209338 -0.12402,0.380857 -0.0225,0.171518 -0.0807,0.392483 -0.12971,0.491442 -0.14845,0.299522 -0.23426,2.005785 -0.15709,3.127457 0.0384,0.558554 0.10201,1.037392 0.15399,1.160653 0.0487,0.115454 0.10702,0.335902 0.12919,0.489892 0.0222,0.153987 0.0772,0.310716 0.12248,0.3483 0.0453,0.03758 0.10125,0.181584 0.12454,0.319876 0.0233,0.138295 0.0927,0.31614 0.15451,0.394809 0.0618,0.07867 0.11265,0.177382 0.11265,0.219625 0,0.04224 0.0945,0.247864 0.21033,0.456819 0.11585,0.208955 0.24442,0.447664 0.28525,0.530717 0.0823,0.167391 0.27579,0.442688 0.74983,1.06557 0.16038,0.21074 1.17779,1.234382 1.33945,1.347721 0.0791,0.05545 0.25201,0.18237 0.38396,0.281636 0.13194,0.09927 0.30043,0.20742 0.37465,0.240294 0.0742,0.03288 0.13487,0.08503 0.13487,0.116272 0,0.03124 0.0924,0.08731 0.20516,0.124542 0.11281,0.03723 0.23598,0.105222 0.27389,0.150894 0.0379,0.04567 0.1458,0.09977 0.23977,0.120407 0.094,0.02064 0.23116,0.09005 0.3049,0.153995 0.0737,0.06395 0.18793,0.116271 0.25321,0.116271 0.0653,0 0.20255,0.05127 0.30541,0.113689 0.10285,0.06242 0.28142,0.132263 0.39687,0.155546 0.11545,0.02328 0.26448,0.07673 0.33125,0.118856 0.0668,0.04212 0.26948,0.09669 0.4501,0.120923 0.18063,0.02424 0.55781,0.09458 0.83819,0.15658 0.42348,0.09355 0.69733,0.108863 1.61903,0.09095 0.66302,-0.01289 1.18127,-0.05007 1.28725,-0.0925 0.0976,-0.03906 0.39395,-0.09804 0.65888,-0.13126 0.26493,-0.03322 0.52445,-0.09895 0.57671,-0.146243 0.0523,-0.0473 0.22141,-0.103399 0.37569,-0.12454 0.15427,-0.02114 0.2806,-0.05741 0.2806,-0.08062 0,-0.05819 0.28146,-0.181385 0.41444,-0.181385 0.06,0 0.17776,-0.05414 0.262,-0.120406 0.0842,-0.06626 0.23633,-0.137293 0.33797,-0.157613 0.10164,-0.02032 0.185,-0.06195 0.185,-0.0925 0,-0.03055 0.0896,-0.09312 0.19947,-0.139009 0.10983,-0.04589 0.23486,-0.125346 0.2775,-0.176734 0.0426,-0.05138 0.11825,-0.09353 0.16847,-0.09353 0.0502,0 0.14811,-0.05521 0.21756,-0.122473 0.22707,-0.21994 0.86964,-0.717269 0.92655,-0.717269 0.0306,0 0.0696,-0.05392 0.0868,-0.119891 0.0173,-0.06597 0.0727,-0.119888 0.12299,-0.119888 0.0503,0 0.10828,-0.0525 0.12868,-0.116789 0.0204,-0.06429 0.0897,-0.133596 0.15399,-0.153996 0.0643,-0.0204 0.11679,-0.06635 0.11679,-0.101801 0,-0.03545 0.12131,-0.206589 0.26975,-0.380338 0.14844,-0.173752 0.27027,-0.344496 0.27027,-0.379307 0,-0.03481 0.0539,-0.09182 0.11989,-0.127125 0.066,-0.03531 0.11989,-0.100158 0.11989,-0.14366 0,-0.0435 0.0674,-0.151829 0.14986,-0.240811 0.0825,-0.08899 0.14986,-0.196593 0.14986,-0.239263 0,-0.04267 0.0515,-0.124118 0.1142,-0.180866 0.0627,-0.05675 0.13075,-0.193228 0.15142,-0.303342 0.0207,-0.110112 0.0775,-0.21544 0.12609,-0.234093 0.0486,-0.01865 0.0884,-0.08467 0.0884,-0.146762 0,-0.06209 0.0631,-0.231616 0.14005,-0.376721 0.077,-0.145106 0.15703,-0.371491 0.17828,-0.503328 0.0213,-0.131839 0.0755,-0.267147 0.12041,-0.300241 0.0449,-0.03309 0.10046,-0.221316 0.1235,-0.418579 0.0231,-0.197265 0.0882,-0.426924 0.1447,-0.510045 0.0913,-0.134149 0.10283,-0.346456 0.10283,-1.890324 0,-1.543878 -0.0116,-1.756174 -0.10283,-1.890326 -0.0565,-0.08312 -0.12153,-0.312264 -0.14418,-0.509529 -0.0231,-0.201626 -0.0896,-0.42137 -0.15193,-0.501777 -0.061,-0.07867 -0.1111,-0.210635 -0.1111,-0.293005 0,-0.08237 -0.0513,-0.234077 -0.11369,-0.336931 -0.0624,-0.102852 -0.13324,-0.280866 -0.15761,-0.395841 -0.0244,-0.114979 -0.0784,-0.236296 -0.11989,-0.269753 -0.0415,-0.03346 -0.10758,-0.162068 -0.14677,-0.285768 -0.0392,-0.123698 -0.0956,-0.224793 -0.12557,-0.224793 -0.03,0 -0.0966,-0.08814 -0.14831,-0.195337 -0.18915,-0.392295 -0.32572,-0.608647 -0.41548,-0.658876 -0.0505,-0.02828 -0.092,-0.07899 -0.092,-0.112654 0,-0.03366 -0.10833,-0.174249 -0.2403,-0.312126 -0.13197,-0.13788 -0.33299,-0.366363 -0.447,-0.507979 -0.11401,-0.141613 -0.34895,-0.364053 -0.52193,-0.494027 -0.17298,-0.129977 -0.33735,-0.277083 -0.36535,-0.327113 -0.028,-0.05003 -0.0892,-0.09095 -0.13591,-0.09095 -0.0467,0 -0.11352,-0.05391 -0.14883,-0.119888 -0.0353,-0.06597 -0.0934,-0.119891 -0.12867,-0.119891 -0.0353,0 -0.14436,-0.06739 -0.24237,-0.14986 -0.098,-0.08247 -0.21569,-0.150378 -0.26148,-0.150378 -0.0458,0 -0.11197,-0.05392 -0.14728,-0.119891 -0.0353,-0.06597 -0.11378,-0.119888 -0.17415,-0.119888 -0.0604,0 -0.17403,-0.05047 -0.25269,-0.112138 -0.0787,-0.06168 -0.22891,-0.130567 -0.33383,-0.15348 -0.10493,-0.02291 -0.22239,-0.08012 -0.26097,-0.126606 -0.0386,-0.04649 -0.16849,-0.103031 -0.28887,-0.125574 -0.12039,-0.02254 -0.28651,-0.08775 -0.36897,-0.145211 -0.0825,-0.05746 -0.28293,-0.121073 -0.44545,-0.141076 -0.16253,-0.02 -0.33775,-0.07438 -0.38964,-0.120922 -0.0558,-0.05005 -0.30264,-0.101008 -0.6041,-0.125058 -0.28039,-0.02238 -0.68011,-0.07871 -0.88832,-0.125058 -0.24331,-0.05415 -0.5633,-0.08085 -0.88263,-0.08061 z m -125.02132,2.710428 c 0.007,0.0016 0.0114,0.01704 0.018,0.01704 0.0575,0 0.13248,0.08114 0.20722,0.170015 0.0474,0.05202 0.0938,0.132819 0.14158,0.205156 0.18854,0.310491 0.32409,0.699595 0.36589,0.992703 -0.26805,-0.453935 -0.51887,-0.929441 -0.73279,-1.384927 z m 1.22113,2.16059 c 0.10144,0.07222 0.17666,0.09067 0.29454,0.202573 0.26715,0.256742 0.49561,0.536938 0.65113,0.754476 0.0495,0.07355 0.0502,0.116273 0.0868,0.182417 -0.24839,-0.141394 -0.42275,-0.341424 -0.65111,-0.623218 -0.12419,-0.153239 -0.25209,-0.327962 -0.38137,-0.516248 z m 64.83893,0.406178 c 1.3918,-0.118231 2.79146,0.340088 3.76721,1.411801 0.3993,0.438563 0.90865,1.334762 1.2113,2.035532 0.0434,0.114573 0.10355,0.235233 0.13901,0.347266 0.0618,0.177287 0.11312,0.343601 0.11575,0.445452 0.002,0.0069 0.002,0.01331 0.003,0.02016 -0.002,0.194929 -0.18079,0.338672 -0.40308,0.321426 -0.2225,-0.01728 -2.12103,-0.215971 -4.21886,-0.441314 -2.09784,-0.225359 -4.10022,-0.419315 -4.44986,-0.430983 -0.4988,-0.01664 -0.65234,-0.199572 -0.53278,-0.576194 0.0718,-0.156956 0.13886,-0.318489 0.22117,-0.464568 0.11429,-0.183862 0.23977,-0.375235 0.42736,-0.620636 0.9439,-1.234771 2.32788,-1.929704 3.71967,-2.047936 z m -36.73161,0.803569 c 0.007,-0.01307 0.0487,-0.01061 0.12817,0.0098 1.70148,0.437451 16.32439,7.820245 0.72191,0.478007 -0.055,-0.0259 -0.10938,-0.04066 -0.16433,-0.06563 -0.4304,-0.219419 -0.70564,-0.386149 -0.68575,-0.422196 z m 20.76411,2.493388 c 0.22492,-0.05861 0.53699,-0.05503 0.6935,0.0083 0.1565,0.06332 -0.0273,0.111678 -0.40876,0.106969 -0.38143,-0.0047 -0.50966,-0.05662 -0.28474,-0.115237 z m -99.45026,29.941324 c -0.0116,5.6e-5 -0.0246,0.0016 -0.0393,0.0036 -0.1148,0.01648 -0.13893,0.08289 -0.1969,0.535885 -0.0364,0.284234 -0.10147,0.538612 -0.1447,0.56534 -0.0466,0.02882 -0.0935,0.244499 -0.11523,0.530201 -0.0293,0.387014 -0.066,0.517451 -0.18759,0.661975 -0.0833,0.09896 -0.19105,0.179834 -0.23926,0.179834 -0.0482,0 -0.14354,0.05568 -0.21188,0.124024 -0.0967,0.09665 -0.20717,0.124539 -0.49712,0.124539 -0.28996,0 -0.40048,0.02737 -0.49713,0.124024 -0.10059,0.100584 -0.20706,0.124539 -0.55914,0.124539 -0.30827,0 -0.43511,0.02257 -0.43511,0.07803 0,0.145179 0.23225,0.22453 0.78549,0.268716 0.34208,0.02732 0.63233,0.08761 0.76687,0.159162 0.11909,0.06334 0.31737,0.11524 0.4403,0.11524 0.30265,0 0.617,0.371207 0.617,0.728638 0,0.131469 0.0553,0.3472 0.12248,0.479039 0.0672,0.131839 0.14028,0.402577 0.16277,0.60203 0.0225,0.199451 0.0797,0.394637 0.1266,0.433568 0.0469,0.03893 0.0853,0.118782 0.0853,0.177249 0,0.05846 0.0209,0.127217 0.0465,0.152961 0.0257,0.02574 0.0628,-0.05326 0.0832,-0.175699 0.0201,-0.122444 0.0797,-0.271851 0.13179,-0.331764 0.0628,-0.07218 0.10816,-0.306612 0.13435,-0.694531 0.0236,-0.350377 0.0731,-0.624512 0.12351,-0.683162 0.0464,-0.0539 0.11618,-0.192778 0.15502,-0.308507 0.0866,-0.257762 0.23196,-0.37511 0.46768,-0.377756 0.0985,-0.0011 0.26604,-0.05491 0.37258,-0.119372 0.10851,-0.06564 0.38534,-0.136771 0.62892,-0.161748 0.23921,-0.02453 0.45217,-0.07289 0.47387,-0.107487 0.0217,-0.03459 0.1896,-0.09928 0.37309,-0.143661 l 0.33332,-0.08061 -0.31679,-0.0052 c -0.33253,-0.0056 -0.70797,-0.106992 -0.70797,-0.191204 0,-0.02721 -0.22302,-0.05948 -0.49506,-0.07183 -0.3637,-0.01651 -0.51573,-0.04942 -0.57462,-0.124023 -0.044,-0.0558 -0.185,-0.119671 -0.31316,-0.142108 -0.12814,-0.02244 -0.23255,-0.07512 -0.23255,-0.11679 0,-0.04167 -0.058,-0.183851 -0.12869,-0.315743 -0.0785,-0.146476 -0.14237,-0.411705 -0.1638,-0.68213 -0.0209,-0.264427 -0.0732,-0.486902 -0.13023,-0.552421 -0.0525,-0.06033 -0.1084,-0.264493 -0.12401,-0.453718 -0.0222,-0.268835 -0.0384,-0.329573 -0.12041,-0.329179 z m 217.95259,16.764868 c -0.13044,0 -0.15028,0.0327 -0.18035,0.294556 -0.0187,0.162411 -0.0759,0.324421 -0.12764,0.362251 -0.061,0.04457 -0.10279,0.199348 -0.12041,0.442868 -0.0163,0.224835 -0.0659,0.417351 -0.12402,0.482142 -0.0664,0.07411 -0.10969,0.286668 -0.13798,0.680577 -0.0268,0.373293 -0.0812,0.652939 -0.15606,0.801503 -0.0757,0.150354 -0.11523,0.355737 -0.11576,0.603064 -5.3e-4,0.215966 -0.0376,0.439254 -0.0879,0.526066 -0.11879,0.205372 -0.13065,0.236757 -0.19068,0.51108 -0.0449,0.205134 -0.0826,0.247618 -0.26355,0.298172 -0.11614,0.03244 -0.24655,0.108051 -0.28991,0.16795 -0.0568,0.07848 -0.15856,0.109037 -0.3638,0.109037 -0.21017,0 -0.31186,0.03138 -0.38809,0.120404 -0.0791,0.09235 -0.1776,0.120925 -0.42116,0.120925 -0.20249,0 -0.39999,0.04345 -0.54261,0.119888 -0.12671,0.06792 -0.41029,0.137681 -0.65267,0.160197 -0.23579,0.02191 -0.5272,0.09008 -0.64751,0.151413 -0.13491,0.06878 -0.34699,0.11162 -0.55345,0.11162 -0.26092,0 -0.35002,0.02471 -0.40463,0.112139 -0.0385,0.06169 -0.16082,0.131707 -0.2713,0.155545 -0.18156,0.03919 -0.18849,0.04781 -0.0734,0.09353 0.0701,0.02782 0.14417,0.0937 0.16433,0.146246 0.0272,0.07083 0.12086,0.0956 0.36225,0.0956 0.22601,0 0.36935,0.03458 0.46923,0.112654 0.1043,0.08153 0.27954,0.120214 0.63665,0.14056 0.3192,0.0182 0.54678,0.06353 0.64699,0.129191 0.10276,0.06733 0.34255,0.113263 0.71417,0.136943 0.40875,0.02606 0.60349,0.06662 0.72295,0.150379 0.10244,0.07183 0.26578,0.11472 0.4377,0.11472 0.21743,0 0.3012,0.03135 0.40514,0.150895 0.0721,0.08295 0.1644,0.150378 0.20464,0.150378 0.0873,0 0.14625,0.136168 0.14625,0.336931 0,0.08024 0.0546,0.200287 0.12092,0.26665 0.0881,0.08811 0.12041,0.201332 0.12041,0.419097 0,0.185225 0.044,0.373716 0.11627,0.497645 0.074,0.127074 0.13168,0.380116 0.15864,0.697113 0.0233,0.273751 0.0617,0.497644 0.0853,0.497644 0.0892,0 0.18293,0.318979 0.18293,0.622703 0,0.240913 0.0283,0.340225 0.12041,0.419094 0.0893,0.07651 0.12092,0.178118 0.12092,0.391192 0,0.219959 0.0274,0.305038 0.11731,0.361217 0.0647,0.04042 0.13568,0.168889 0.15761,0.285771 0.0219,0.116883 0.0464,0.212389 0.0543,0.212389 0.008,0 0.0727,-0.05069 0.14418,-0.112654 0.0776,-0.06732 0.12971,-0.183557 0.12971,-0.288869 0,-0.09693 0.0517,-0.277347 0.11472,-0.401011 0.063,-0.123663 0.13384,-0.413898 0.15709,-0.645438 0.0271,-0.270171 0.0831,-0.473408 0.15658,-0.566891 0.0881,-0.111985 0.11473,-0.244649 0.11473,-0.573608 0,-0.347441 0.0224,-0.450311 0.1204,-0.548286 0.097,-0.09696 0.12092,-0.20108 0.12092,-0.530201 0,-0.282247 0.0352,-0.479176 0.11369,-0.633037 0.0626,-0.122793 0.13171,-0.317987 0.15348,-0.43408 0.0228,-0.121407 0.0917,-0.239239 0.16227,-0.276987 0.0674,-0.0361 0.17489,-0.11805 0.23874,-0.181902 0.0703,-0.07035 0.19917,-0.115755 0.32711,-0.115755 0.11614,0 0.21136,-0.02408 0.21136,-0.05323 0,-0.08637 0.30604,-0.176739 0.70125,-0.207222 0.20479,-0.01579 0.44076,-0.07557 0.52968,-0.133842 0.0996,-0.06529 0.3253,-0.115625 0.59583,-0.133326 0.30031,-0.01966 0.45923,-0.05817 0.5116,-0.124539 0.0518,-0.06569 0.20504,-0.104281 0.48266,-0.120923 0.27607,-0.01656 0.44519,-0.05881 0.5271,-0.13126 0.0664,-0.0587 0.22807,-0.125902 0.35915,-0.149344 0.20887,-0.03735 0.38741,-0.165004 0.39326,-0.281635 10e-4,-0.02103 -0.17326,-0.04945 -0.38706,-0.06305 -0.23609,-0.01503 -0.43145,-0.06224 -0.49764,-0.119888 -0.0722,-0.06289 -0.29147,-0.108191 -0.64958,-0.134358 -0.33104,-0.02418 -0.59658,-0.07645 -0.68575,-0.134877 -0.0891,-0.05839 -0.33595,-0.106852 -0.63613,-0.125055 -0.34791,-0.02109 -0.53773,-0.06319 -0.65371,-0.144695 -0.10834,-0.07615 -0.26612,-0.114721 -0.46767,-0.114721 -0.21574,0 -0.33658,-0.03273 -0.41599,-0.112138 -0.0616,-0.06156 -0.19043,-0.131496 -0.28629,-0.155546 -0.22017,-0.05526 -0.32556,-0.142248 -0.32556,-0.2682 0,-0.05427 -0.0679,-0.226058 -0.1509,-0.381889 -0.10455,-0.196398 -0.1509,-0.378371 -0.1509,-0.593247 0,-0.21863 -0.0358,-0.355348 -0.12092,-0.463536 -0.0841,-0.106916 -0.1204,-0.244626 -0.1204,-0.454753 0,-0.189579 -0.0423,-0.371602 -0.11421,-0.489895 -0.0629,-0.103462 -0.13401,-0.364124 -0.15761,-0.579807 -0.0236,-0.215681 -0.0825,-0.437317 -0.13074,-0.491961 -0.0483,-0.05464 -0.10248,-0.257948 -0.12093,-0.452168 -0.0189,-0.199162 -0.0718,-0.383418 -0.12092,-0.422714 -0.0479,-0.03832 -0.10757,-0.146923 -0.13281,-0.241329 -0.0345,-0.128911 -0.0822,-0.172083 -0.19223,-0.172083 z m -16.02332,40.514321 c -0.007,-2.6e-4 -0.0115,0.0199 -0.0134,0.0605 -0.004,0.0842 -0.0573,0.25234 -0.11885,0.37311 -0.0618,0.12113 -0.13113,0.43107 -0.15451,0.69143 -0.0233,0.25954 -0.0796,0.52912 -0.12506,0.59893 -0.0454,0.0698 -0.10057,0.23245 -0.12248,0.36173 -0.0679,0.40086 -0.0894,0.43647 -0.28835,0.47853 -0.10634,0.0225 -0.24783,0.0892 -0.31419,0.14779 -0.074,0.0654 -0.26059,0.11889 -0.48266,0.13849 -0.19909,0.0176 -0.44169,0.074 -0.5395,0.12558 -0.0978,0.0516 -0.36314,0.11202 -0.58963,0.13435 -0.36255,0.0357 -0.39568,0.0489 -0.27492,0.11008 0.25451,0.12884 0.61779,0.2116 1.09606,0.25011 0.30407,0.0245 0.54352,0.0798 0.66352,0.15296 0.10329,0.063 0.24884,0.1146 0.3235,0.11472 0.19906,2.7e-4 0.35309,0.18711 0.40101,0.48679 0.0232,0.14508 0.0698,0.28128 0.10387,0.30231 0.0735,0.0455 0.17048,0.43359 0.1726,0.69143 7.9e-4,0.10083 0.0556,0.28996 0.12195,0.42013 0.0664,0.13017 0.12041,0.33938 0.12041,0.46509 0,0.54652 0.28029,0.0218 0.35502,-0.66456 0.0337,-0.30947 0.0916,-0.54215 0.15141,-0.60823 0.0628,-0.0694 0.0971,-0.21699 0.0971,-0.42064 0,-0.40485 0.1222,-0.59134 0.4439,-0.67697 0.13741,-0.0366 0.29348,-0.10547 0.34675,-0.15296 0.0533,-0.0475 0.28385,-0.1021 0.51263,-0.12144 0.22877,-0.0193 0.52655,-0.0865 0.66146,-0.14934 0.13491,-0.0628 0.35211,-0.11596 0.48266,-0.11834 0.18779,-0.003 0.21225,-0.0153 0.11679,-0.0563 -0.0664,-0.0285 -0.18887,-0.0537 -0.27182,-0.0563 -0.083,-0.003 -0.23222,-0.0473 -0.33177,-0.0997 -0.0995,-0.0524 -0.38469,-0.1096 -0.63355,-0.12661 -0.30757,-0.021 -0.50487,-0.0677 -0.61598,-0.14573 -0.0899,-0.0631 -0.21342,-0.11472 -0.27492,-0.11472 -0.19864,0 -0.43615,-0.3111 -0.43615,-0.57154 0,-0.1283 -0.043,-0.28093 -0.0956,-0.339 -0.0529,-0.0584 -0.11958,-0.29675 -0.14935,-0.53382 -0.0296,-0.2355 -0.0882,-0.48872 -0.13022,-0.56275 -0.0421,-0.074 -0.10743,-0.25686 -0.14521,-0.40618 -0.0303,-0.11993 -0.0505,-0.1782 -0.0625,-0.1788 z m -192.52519,3.0701 c -0.20899,-5.3e-4 -0.41971,0.005 -0.63254,0.0191 -3.31904,0.213 -6.20101,2.12304 -7.8827,5.22397 -0.80195,1.47876 -0.83873,1.66267 -0.83873,4.1522 0,2.37643 0.0611,2.72137 0.69765,3.92999 1.38404,2.62784 3.47372,4.37155 6.13087,5.11545 4.40079,1.23204 9.29074,-1.20812 11.04326,-5.51026 2.51751,-6.18001 -2.03914,-12.91304 -8.51781,-12.93047 z m 47.99447,1.15858 c 0.0209,-0.0503 0.0484,-0.027 0.0775,0.0848 0.0587,0.22492 0.0549,0.53699 -0.008,0.6935 -0.0633,0.15651 -0.11123,-0.0279 -0.10647,-0.40928 0.003,-0.19045 0.0164,-0.31725 0.0372,-0.36897 z m 10.51824,46.94959 c 0,0.19072 -0.0892,0.55497 -0.19844,0.80926 -0.12522,0.29142 -0.19896,0.3338 -0.19896,0.11523 0,-0.0541 0.0435,-0.1539 0.0563,-0.22944 0.0565,-0.17359 0.11104,-0.30383 0.16846,-0.48782 0.0119,-0.0891 0.10377,-0.1494 0.17261,-0.20723 z m -78.70994,3.27526 c -0.19566,-0.006 -0.3651,0.58517 -0.5643,1.74872 -0.12317,0.71943 -0.29502,1.38786 -0.3819,1.48519 -0.0869,0.0973 -0.15812,0.39572 -0.15812,0.66301 0,0.26728 -0.10446,0.61553 -0.23254,0.77411 -0.30792,0.38131 -1.49948,0.82109 -2.65462,0.97978 -0.83955,0.11534 -2.14199,0.57408 -2.14199,0.75448 0,0.0392 0.48165,0.16585 1.07075,0.28164 2.21572,0.43548 3.58658,0.80358 3.74499,1.0051 0.1729,0.22 0.21537,0.37333 0.67902,2.44326 0.16063,0.71718 0.4191,1.57647 0.57412,1.90945 0.15505,0.33297 0.31028,0.60565 0.34468,0.60565 0.072,0 0.77057,-2.89853 0.96427,-4.00028 0.0716,-0.40724 0.22201,-0.83144 0.33435,-0.94257 0.25168,-0.24896 1.80827,-0.76111 2.81223,-0.92501 1.06167,-0.17332 1.79502,-0.48264 1.71514,-0.72399 -0.0377,-0.11404 -0.64863,-0.29912 -1.35753,-0.41083 -1.55442,-0.24495 -2.88991,-0.62269 -3.17396,-0.89813 -0.11481,-0.11132 -0.44143,-1.1901 -0.72605,-2.39728 -0.37102,-1.57362 -0.62677,-2.34602 -0.84854,-2.3523 z m 90.25133,42.00518 c -0.013,0 -0.0351,0.13772 -0.0486,0.30541 -0.0282,0.34796 -0.0654,0.47022 -0.16589,0.54777 -0.0607,0.0469 -0.0728,0.1099 -0.0884,0.4439 -0.0249,0.53961 -0.039,0.60435 -0.15812,0.74001 -0.0576,0.0656 -0.10491,0.15426 -0.10491,0.19689 0,0.11244 -0.0642,0.21472 -0.13435,0.21445 -0.0335,-1.7e-4 -0.10187,0.0501 -0.15246,0.11162 -0.0866,0.10541 -0.11252,0.11441 -0.44854,0.15141 -0.30205,0.0333 -0.36682,0.0515 -0.42273,0.12041 -0.0742,0.0915 -0.35726,0.14698 -0.75808,0.14883 -0.21519,0.001 -0.23977,0.01 -0.36433,0.12764 -0.0734,0.0696 -0.12579,0.13906 -0.11626,0.15451 0.01,0.0155 0.22148,0.036 0.47077,0.0455 0.45794,0.0174 0.67876,0.0706 0.74258,0.1788 0.0222,0.0376 0.13687,0.0571 0.42945,0.0734 0.24468,0.0136 0.43926,0.0429 0.50228,0.0755 0.12383,0.064 0.25167,0.2596 0.25167,0.38499 0,0.0584 0.0241,0.0988 0.0677,0.11265 0.12327,0.0391 0.15211,0.11951 0.18397,0.51573 0.0259,0.32365 0.0448,0.40575 0.10647,0.47077 0.10985,0.11575 0.13642,0.20895 0.15864,0.55139 0.0284,0.43739 0.0379,0.46558 0.16796,0.52038 0.14597,0.0615 0.15261,0.0482 0.17775,-0.35398 0.019,-0.3044 0.0849,-0.54036 0.18346,-0.65629 0.0278,-0.0327 0.0547,-0.22127 0.0698,-0.48938 0.0135,-0.23965 0.0414,-0.48695 0.062,-0.54983 0.0206,-0.0629 0.1366,-0.21185 0.25789,-0.33073 0.20071,-0.19677 0.23789,-0.21774 0.41288,-0.23875 0.10576,-0.0127 0.25186,-0.0236 0.32504,-0.0238 0.0732,-1.7e-4 0.13333,-0.0146 0.13333,-0.0326 0,-0.0179 0.0547,-0.0667 0.12144,-0.108 0.0935,-0.0578 0.21103,-0.0811 0.51107,-0.10283 0.3511,-0.0254 0.40071,-0.0378 0.50437,-0.12506 0.0633,-0.0532 0.16082,-0.10606 0.21704,-0.11731 0.20783,-0.0416 0.12409,-0.0722 -0.25167,-0.092 -0.39023,-0.0206 -0.58748,-0.0792 -0.62889,-0.18707 -0.014,-0.0368 -0.0815,-0.0519 -0.23773,-0.0532 -0.11991,-0.001 -0.34372,-0.0154 -0.49762,-0.0315 -0.24911,-0.0261 -0.29134,-0.0415 -0.38344,-0.14004 -0.0569,-0.0609 -0.13422,-0.11059 -0.17158,-0.11059 -0.0374,0 -0.0868,-0.0362 -0.11007,-0.0801 -0.0233,-0.0439 -0.0694,-0.10353 -0.10231,-0.13281 -0.10898,-0.097 -0.13737,-0.19703 -0.16277,-0.5705 -0.0201,-0.29433 -0.0384,-0.37907 -0.0884,-0.41445 -0.0925,-0.0655 -0.13997,-0.24598 -0.17106,-0.6475 -0.0265,-0.3417 -0.0332,-0.36343 -0.14676,-0.4806 -0.0654,-0.0675 -0.12967,-0.12299 -0.14264,-0.12299 z m 87.59777,3.7574 c -0.0529,-0.006 -0.0692,0.0242 -0.0698,0.10128 -5.3e-4,0.0919 -0.0414,0.17268 -0.14108,0.27802 -0.0918,0.0971 -0.095,0.10658 -0.11524,0.3576 -0.0238,0.29501 -0.061,0.40171 -0.17415,0.50127 -0.078,0.0687 -0.0799,0.0752 -0.0801,0.293 -2.7e-4,0.29736 -0.0432,0.65729 -0.0889,0.74569 -0.0203,0.0394 -0.0656,0.0928 -0.10077,0.11886 -0.0622,0.046 -0.0648,0.0577 -0.0791,0.44235 -0.026,0.70158 -0.0674,0.91622 -0.1943,1.0051 -0.0503,0.0353 -0.0569,0.0702 -0.0744,0.39791 -0.0209,0.39187 -0.0465,0.4685 -0.17312,0.51263 -0.0533,0.0186 -0.0768,0.0505 -0.0997,0.13643 -0.0309,0.11541 -0.043,0.12399 -0.21239,0.15244 -0.0639,0.0107 -0.10013,0.0347 -0.11989,0.078 -0.0484,0.1062 -0.21595,0.17081 -0.48834,0.18861 -0.23549,0.0154 -0.24444,0.0182 -0.27802,0.0884 -0.0525,0.10984 -0.16835,0.1428 -0.59583,0.17002 -0.37637,0.024 -0.38789,0.0267 -0.45682,0.0971 -0.0389,0.0398 -0.11674,0.0861 -0.1726,0.10283 -0.10985,0.0329 -0.62019,0.078 -0.90847,0.0806 -0.17261,0.002 -0.18016,0.005 -0.22996,0.0837 -0.0683,0.10857 -0.18541,0.14447 -0.54777,0.16847 l -0.29353,0.0196 -0.11472,0.10645 c -0.0718,0.0665 -0.14831,0.11172 -0.20412,0.12093 -0.16024,0.0264 -0.17216,0.0361 -0.1049,0.0832 0.0968,0.0677 0.19762,0.16702 0.21136,0.20825 0.01,0.0297 0.0809,0.0416 0.32504,0.0537 0.36145,0.018 0.40374,0.0368 0.50436,0.22324 0.003,0.005 0.22543,0.019 0.49454,0.031 0.52944,0.0236 0.84057,0.0807 1.03095,0.18966 0.0881,0.0504 0.15998,0.0618 0.52555,0.0842 0.4485,0.0275 0.56853,0.0578 0.68781,0.17208 0.0555,0.0532 0.10283,0.0662 0.31471,0.0863 0.27064,0.0256 0.3321,0.0562 0.35915,0.17932 0.0135,0.0615 0.0306,0.0722 0.12816,0.0832 0.12953,0.0146 0.2504,0.1045 0.33745,0.25011 0.0431,0.0721 0.0628,0.15928 0.0791,0.35192 0.0199,0.23512 0.0282,0.26361 0.10077,0.34623 0.10871,0.12381 0.12975,0.21678 0.16123,0.71624 0.0258,0.40951 0.0306,0.43637 0.0873,0.47955 0.10979,0.0836 0.16665,0.29678 0.18345,0.68937 l 0.015,0.35501 0.0832,0.0491 c 0.10444,0.0616 0.13726,0.15417 0.15348,0.42943 0.0192,0.32535 0.0312,0.3772 0.0884,0.39532 0.0843,0.0268 0.14906,0.19552 0.17983,0.46612 0.0277,0.24369 0.0313,0.25258 0.10284,0.27957 0.0474,0.0179 0.0877,0.0608 0.11214,0.11938 0.0523,0.12506 0.10416,0.1172 0.12453,-0.0186 0.0118,-0.0788 0.0475,-0.14509 0.12661,-0.23565 l 0.11007,-0.12661 0.0186,-0.2806 c 0.026,-0.39609 0.0523,-0.49836 0.15813,-0.61392 l 0.0899,-0.0982 0.0207,-0.40979 c 0.0228,-0.44781 0.0511,-0.55498 0.17002,-0.64854 l 0.0734,-0.0579 0.0155,-0.42478 c 0.0178,-0.48695 0.0459,-0.61746 0.16123,-0.74518 l 0.0827,-0.0915 0.016,-0.36122 c 0.0178,-0.3922 0.0415,-0.47984 0.16536,-0.61185 0.0434,-0.0463 0.086,-0.10629 0.0946,-0.13333 0.009,-0.0294 0.0577,-0.062 0.11989,-0.0806 0.0786,-0.0236 0.11182,-0.0508 0.13746,-0.11214 0.0431,-0.10312 0.0756,-0.11555 0.35347,-0.13746 0.14375,-0.0113 0.23215,-0.0299 0.23874,-0.0496 0.006,-0.0172 0.035,-0.0591 0.0651,-0.0935 0.0655,-0.0749 0.21505,-0.10644 0.6103,-0.12816 0.24135,-0.0133 0.28416,-0.0225 0.3483,-0.0765 0.13669,-0.11501 0.46734,-0.18809 0.85163,-0.18862 0.31991,-2.6e-4 0.44177,-0.0239 0.47232,-0.0909 0.0526,-0.1154 0.13369,-0.14235 0.50385,-0.16536 0.34476,-0.0214 0.34919,-0.0224 0.42633,-0.10129 0.11714,-0.11982 0.19644,-0.15044 0.4377,-0.16898 l 0.21962,-0.0165 -0.008,-0.14314 -0.007,-0.14263 -0.21653,-0.0181 c -0.25682,-0.0213 -0.41351,-0.0757 -0.48679,-0.16898 -0.0531,-0.0676 -0.0577,-0.0681 -0.54415,-0.0966 -0.5329,-0.0312 -0.72943,-0.0723 -0.85473,-0.17777 -0.075,-0.0631 -0.0956,-0.0663 -0.56224,-0.0884 -0.53184,-0.0251 -0.6227,-0.0472 -0.71313,-0.17415 l -0.0563,-0.0796 h -0.25011 c -0.37358,0 -0.50296,-0.0314 -0.62684,-0.15296 -0.081,-0.0796 -0.12918,-0.10517 -0.22531,-0.11834 -0.14313,-0.0196 -0.18448,-0.0536 -0.22014,-0.18242 -0.0191,-0.0692 -0.0483,-0.10481 -0.10904,-0.13281 -0.11772,-0.0543 -0.14634,-0.1366 -0.16433,-0.47232 -0.0155,-0.2893 -0.0174,-0.29667 -0.0853,-0.33176 -0.11434,-0.0591 -0.15744,-0.20853 -0.1695,-0.58601 -0.0131,-0.41005 -0.0175,-0.43106 -0.0956,-0.46664 -0.11245,-0.0512 -0.14305,-0.15626 -0.17105,-0.58704 -0.016,-0.24591 -0.037,-0.40415 -0.0543,-0.41032 -0.0685,-0.0245 -0.14582,-0.14555 -0.17053,-0.26665 -0.0148,-0.0724 -0.0363,-0.26733 -0.0481,-0.43356 -0.0211,-0.29804 -0.0229,-0.30312 -0.10181,-0.36484 -0.0907,-0.071 -0.12028,-0.15952 -0.15916,-0.47232 -0.0289,-0.23257 -0.0508,-0.26813 -0.19379,-0.31729 -0.0265,-0.009 -0.0485,-0.0152 -0.0661,-0.0171 z" /></clipPath><radialGradient
       inkscape:collect="always"
       xlink:href="#linearGradient4"
       id="radialGradient5"
       cx="-193.25409"
       cy="144.61409"
       fx="-193.25409"
       fy="144.61409"
       r="295.25781"
       gradientUnits="userSpaceOnUse" /></defs><g
     inkscape:label="Camada 1"
     inkscape:groupmode="layer"
     id="layer1"><path
       sodipodi:type="star"
       style="fill:none;stroke:url(#radialGradient5);stroke-width:40;stroke-dasharray:none"
       id="path3"
       inkscape:flatsided="false"
       sodipodi:sides="12"
       sodipodi:cx="-193.25409"
       sodipodi:cy="144.61409"
       sodipodi:r1="281.70789"
       sodipodi:r2="2.8170788"
       sodipodi:arg1="0.21482117"
       sodipodi:arg2="0.47662056"
       inkscape:rounded="0.04"
       inkscape:randomized="0"
       d="m 81.978609,204.66652 c -2.378903,10.90301 -267.609829,-68.6758 -272.729579,-58.76001 -5.11975,9.91578 213.340864,180.07804 205.829172,188.33086 -7.5116921,8.25283 -197.419012,-193.27991 -206.810742,-187.25246 -9.39172,6.02745 94.719596,262.62259 84.08787,266.01391 -10.63173,3.39131 -74.32993,-266.09482 -85.47713,-265.57076 -11.14719,0.52406 -49.28172,274.79763 -60.18472,272.41873 -10.90301,-2.37891 68.6758,-267.60983 58.76001,-272.72958 -9.91578,-5.11975 -180.07804,213.34086 -188.33086,205.82917 -8.25283,-7.51169 193.27991,-197.41901 187.25246,-206.81074 -6.02745,-9.39172 -262.62259,94.71959 -266.0139,84.08787 -3.39132,-10.63173 266.09481,-74.32993 265.57075,-85.47713 -0.52406,-11.1472 -274.79763,-49.281721 -272.41873,-60.184724 2.37891,-10.903003 267.60984,68.675804 272.72958,58.760014 5.11975,-9.91578 -213.34086,-180.078036 -205.82917,-188.330862 7.51169,-8.252827 197.41901,193.279912 206.81074,187.252462 9.39172,-6.02745 -94.71959,-262.62259 -84.08786,-266.01391 10.63172,-3.39131 74.32992,266.09482 85.47712,265.57076 11.1472,-0.52406 49.28172,-274.79763 60.18472,-272.41873 10.90301,2.3789 -68.6758,267.60983 -58.76001,272.72958 9.91578,5.11975 180.078037,-213.340864 188.3308631,-205.829171 C 4.6220195,-56.206509 -196.91071,133.70081 -190.88327,143.09254 -184.85582,152.48426 71.739325,48.372945 75.130636,59.004674 78.521947,69.636404 -190.96418,133.3346 -190.44012,144.4818 c 0.52406,11.1472 274.797632,49.28172 272.418729,60.18472 z"
       inkscape:transform-center-x="-0.11321533"
       inkscape:transform-center-y="-0.015821303"
       transform="matrix(0.53766318,0,0,0.53766978,262.65561,80.995374)" /></g></svg>
