<?xml version="1.0" encoding="UTF-8" standalone="no"?>
<!-- Created with Inkscape (http://www.inkscape.org/) -->

<svg
   version="1.1"
   id="svg1"
   width="512"
   height="512"
   viewBox="0 0 512 512"
   sodipodi:docname="ranking-background.svg"
   xml:space="preserve"
   inkscape:version="1.3.2 (091e20e, 2023-11-25)"
   xmlns:inkscape="http://www.inkscape.org/namespaces/inkscape"
   xmlns:sodipodi="http://sodipodi.sourceforge.net/DTD/sodipodi-0.dtd"
   xmlns="http://www.w3.org/2000/svg"
   xmlns:svg="http://www.w3.org/2000/svg"><defs
     id="defs1" /><sodipodi:namedview
     id="namedview1"
     pagecolor="#505050"
     bordercolor="#eeeeee"
     borderopacity="1"
     inkscape:showpageshadow="0"
     inkscape:pageopacity="0"
     inkscape:pagecheckerboard="0"
     inkscape:deskcolor="#505050"
     inkscape:zoom="0.44006036"
     inkscape:cx="104.53112"
     inkscape:cy="407.89859"
     inkscape:window-width="1440"
     inkscape:window-height="764"
     inkscape:window-x="0"
     inkscape:window-y="25"
     inkscape:window-maximized="0"
     inkscape:current-layer="g17" /><g
     inkscape:groupmode="layer"
     inkscape:label="Image"
     id="g1"><g
       id="g17"
       transform="translate(738.61024,718.71902)"><path
         style="fill:#292d32;fill-opacity:1;stroke-width:79.2611"
         d="m -410.88753,-260.74484 -3.16478,-3.52315 c -1.74063,-1.93773 -3.70927,-4.14575 -4.37477,-4.90671 -5.63206,-6.44002 -2.52069,-5.82622 -3.96707,-7.34775 l -1.6602,-1.74645 -72.65636,2.67601 c -42.25625,1.55635 -75.02789,-4.42818 -75.02789,-4.70066 0,-0.2575 3.10862,-3.15347 3.56474,-3.3285 0.45611,-0.17503 32.29899,-6.27659 71.41222,-3.78527 l 71.57131,4.55876 v -46.64975 -46.64976 l 10.35452,-0.14215 10.35451,-0.14215 0.14405,-8.51954 0.14406,-8.51953 h 12.83185 12.83185 v 7.60204 7.60205 h -6.02921 -6.02921 v 35.12448 52.49534 9.37617 l 4.32531,3.18652 c 2.37891,1.75258 5.00014,3.69799 5.82495,4.32312 2.16557,1.6413 10.85574,8.05582 12.37345,9.13326 0.70973,0.50385 2.00732,1.55797 2.88353,2.34249 l 1.59314,1.42639 -14.94196,-0.098 c -11.03779,0.73274 -21.39598,-0.25901 -32.35804,0.21274 z"
         id="path11"
         sodipodi:nodetypes="cssscssssccccccccccccccccsssscsc" /><path
         style="fill:#f7cd4f;fill-opacity:1;stroke-width:67.0997"
         d="m -561.91419,-346.3369 v -19.52881 h 63.46862 63.46862 v 19.52881 19.5288 h -63.46862 -63.46862 z"
         id="path12" /><path
         style="fill:#292d32;fill-opacity:1;stroke-width:151.181"
         d="m -539.98685,-573.05765 c 0,0 19.5033,-19.16411 34.08837,-0.33919 0,0 -1.18716,-20.35126 27.13502,-14.92426 l 40.53293,35.27553 c 0,0 4.23984,6.61416 3.56147,8.47969 l -66.37936,65.61938 -23.604,-6.22287 -24.89148,-76.17653 z"
         id="path17" /><path
         id="path13"
         style="fill:#ffffff;fill-opacity:1;stroke-width:151.181"
         d="m -472.52148,-653.17969 -10.3711,3.54883 5.73242,30.01758 15.00782,-3.82031 z m -92.2754,29.35938 -6.71874,4.31836 9.11718,28.3125 11.9961,2.8789 -4.31836,-22.07422 z m 75.24219,40.75 -8.07226,2.46679 -3.58985,6.72852 3.14063,3.58789 14.1289,-5.83008 -1.3457,-6.27929 z m -37.67578,6.05469 -4.25976,4.26171 0.44726,9.64258 19.28711,-3.58789 -4.70898,-8.9707 z m 73.28125,45.32812 -2.8789,78.69727 h 15.83398 l 1.43945,-12.47657 -1.43945,-22.07226 1.91992,-37.91016 z" /><path
         id="path9"
         style="fill:#f7cd4f;fill-opacity:1;stroke-width:239.023"
         d="m -482.01758,-664.94531 c -0.23407,0.007 -0.46747,0.0308 -0.70117,0.0703 -3.03541,0.51283 -5.00554,4.02589 -6.05273,10.79492 -0.51567,3.33313 -0.30975,13.64991 0.41015,20.57813 0.35592,3.42528 0.69521,5.88096 2.03711,14.77929 0.32103,2.12881 0.74693,4.42812 2.0293,10.9336 0.1756,0.89083 0.63218,3.07771 1.01367,4.85937 0.3815,1.78166 0.82975,3.96855 0.99609,4.85938 1.29163,6.9173 2.70828,11.76798 3.80664,13.03125 0.74469,0.85646 1.61365,3.61335 3.10352,9.8457 0.18634,0.77947 0.71743,2.85323 1.17969,4.60742 0.46226,1.75418 0.83984,3.51666 0.83984,3.91797 0,1.14695 1.13757,2.07248 1.98828,1.61719 2.9411,-1.57403 7.63042,-2.09929 10.53711,-1.18164 6.46251,2.04023 15.08481,7.20497 21.48828,12.87109 1.19969,1.06155 1.43555,1.14495 1.53125,0.54297 0.0965,-0.60708 -1.66724,-7.96684 -3.80859,-15.89648 -0.33077,-1.22489 -0.7613,-2.86506 -0.95703,-3.64454 -0.42495,-1.69233 -0.89413,-3.41175 -1.82227,-6.67968 -0.37951,-1.33625 -0.83994,-3.06818 -1.02344,-3.84766 -0.18346,-0.77947 -0.63474,-2.41964 -1.00195,-3.64453 -0.36722,-1.2249 -0.81669,-2.77329 -1,-3.44141 -1.07778,-3.9281 -1.69226,-6.03629 -2.65625,-9.11132 -0.59342,-1.89302 -1.22311,-3.98815 -1.39844,-4.65625 -0.58685,-2.23626 -5.94702,-18.66845 -6.47265,-19.8418 -0.19953,-0.44542 -0.72528,-1.90204 -1.16797,-3.23828 -0.80779,-2.43832 -4.21041,-11.44092 -4.89648,-12.95703 -0.20157,-0.44541 -0.83542,-1.84654 -1.41016,-3.11328 -0.57473,-1.26678 -1.04492,-2.40223 -1.04492,-2.52149 0,-0.33136 -2.51679,-5.40352 -4.03516,-8.13281 -4.42013,-7.94522 -8.00062,-11.50688 -11.51172,-11.40039 z m 7.43164,15.68554 c 0.15237,-10e-4 0.3151,0.0101 0.49024,0.0352 0.87875,0.12588 1.24974,0.73156 3.93359,6.41016 0.15789,0.33406 0.62273,1.70087 1.0332,3.03711 0.41046,1.33622 0.88122,2.79286 1.04493,3.23828 0.16371,0.44541 0.6175,2.14121 1.00976,3.76758 0.554,2.29696 0.61245,3.17751 0.26172,3.94726 -0.3364,0.73833 -0.76836,0.99219 -1.69531,0.99219 -1.04047,0 -1.34175,-0.23364 -1.83985,-1.42578 -0.32758,-0.784 -0.70812,-2.24823 -0.8457,-3.25196 -0.13758,-1.00371 -0.40606,-1.92064 -0.59766,-2.03906 -0.1916,-0.11842 -0.3496,-0.74097 -0.3496,-1.38281 -10e-6,-0.64183 -0.16748,-1.27138 -0.37305,-1.39844 -0.20557,-0.12705 -0.5014,-0.81537 -0.65821,-1.5293 -0.15678,-0.71391 -0.43014,-1.57659 -0.60546,-1.91796 -2.82015,-5.49143 -3.09414,-8.46318 -0.8086,-8.48243 z m -92.3125,22.37891 c -14.02662,0 -11.17078,35.54741 8.68555,108.06641 9.63679,35.19534 12.53341,43.27425 19.87305,55.46289 3.2285,5.36147 8.85687,19.80854 13.51367,34.6875 4.38935,14.02449 8.94135,26.47153 10.11719,27.6582 2.02646,2.04517 8.75345,0.55168 25.77343,-5.7207 1.37846,-0.50802 1.97657,1.2366 1.97657,5.76562 v 6.49219 h 7.90429 7.90625 v -9.32617 -9.32422 l 12.25196,-4.37695 c 6.73914,-2.40695 15.92359,-5.70736 20.4082,-7.33399 4.48457,-1.62665 8.51163,-3.89092 8.94922,-5.03125 0.43759,-1.14034 -1.70674,-13.38548 -4.76367,-27.21289 l -5.55665,-25.14258 1.92383,-21.34375 c 1.05833,-11.73916 2.24778,-25.96694 2.64453,-31.61914 l 0.72266,-10.27734 -8.4082,-6.7207 c -4.62466,-3.69618 -11.49187,-7.9059 -15.25977,-9.35547 -6.72778,-2.58829 -6.99703,-2.56268 -15.01953,1.42382 -12.5344,6.22857 -40.58008,26.309 -40.58008,29.05469 0,3.49527 8.66629,11.6836 12.36524,11.6836 1.71773,0 7.10953,-2.09595 11.98047,-4.65821 6.6339,-3.48962 8.85546,-4.08429 8.85546,-2.37109 0,1.2579 -0.62618,2.28711 -1.39257,2.28711 -0.76639,0 -3.61154,2.26843 -6.32227,5.04101 -5.45786,5.58246 -10.37118,17.22147 -12.08008,28.61719 -0.61428,4.09628 -1.83979,7.44922 -2.72265,7.44922 -2.03752,0 -0.37275,-13.27094 2.78906,-22.23242 l 2.3164,-6.56445 -3.87695,0.97265 c -9.91273,2.48795 -23.09414,-8.71268 -30.79687,-26.16992 -4.49005,-10.17608 -7.10448,-27.12449 -5.08008,-32.93164 1.33844,-3.83945 0.94263,-6.82796 -2.08399,-15.72656 -8.51904,-25.04705 -19.11826,-41.22266 -27.01367,-41.22266 z m 2.00782,8.03516 c 0.55146,-0.0963 1.52103,0.36272 2.89843,1.50586 2.5919,2.15105 6.00333,8.05945 8.60352,14.89843 0.93995,2.47222 0.92688,4.25384 -0.0371,4.84961 -0.83797,0.5179 -2.27294,-1.05831 -3.18945,-3.50195 -0.91653,-2.44364 -3.51113,-7.12375 -5.76563,-10.40039 -2.91557,-4.23741 -3.72303,-7.13978 -2.50976,-7.35156 z m 75.77148,33.69531 c -3.61673,-0.047 -7.02689,1.12302 -9.47852,3.41601 -3.17926,2.97357 -5.54173,10.02517 -5.52343,16.48633 0.0109,3.83888 1.59287,12.34676 2.47656,13.31836 0.19243,0.21157 0.34961,0.599 0.34961,0.86133 0,0.26232 0.27623,1.13668 0.61328,1.94336 0.33705,0.80667 0.75891,1.4668 0.9375,1.4668 0.17859,0 1.99742,-1.18068 4.04297,-2.62305 3.71903,-2.62239 13.96186,-9.21322 17.58789,-11.31836 1.05776,-0.6141 2.02276,-1.27954 2.14453,-1.47656 0.12177,-0.19703 0.0163,-1.13485 -0.23437,-2.08594 -0.25065,-0.95109 -0.6095,-2.36701 -0.79688,-3.14648 -0.52443,-2.18157 -1.63312,-6.54385 -2.00781,-7.89649 -0.18507,-0.66812 -0.66152,-2.46588 -1.0586,-3.99414 -0.69284,-2.66656 -0.79368,-2.80932 -2.48242,-3.5332 -2.15663,-0.92444 -4.40027,-1.38978 -6.57031,-1.41797 z m -0.64648,3.5957 c 1.40359,-0.0291 2.51583,0.35446 3.15039,1.13086 0.85529,1.04652 0.86518,1.21686 0.14257,2.20508 -0.42625,0.58293 -1.12092,0.78824 -2.83398,0.83984 -2.68201,0.0808 -3.80208,0.72226 -5.38281,3.08203 -1.4133,2.10984 -2.92173,2.51065 -3.73438,0.99219 -1.24695,-2.32994 1.90941,-6.50688 5.85547,-7.74804 1.01299,-0.31863 1.96057,-0.48451 2.80274,-0.50196 z m -31.72461,3.01172 c -1.90718,-0.0354 -3.78486,0.12761 -5.11133,0.49805 -3.87175,1.08123 -7.49219,3.87156 -7.49219,5.77539 0,0.63361 -0.27336,1.80595 -0.60742,2.60547 -1.72825,4.13628 0.4701,20.69314 3.80859,28.6875 2.01566,4.82669 7.09222,14.3105 8.12696,15.18359 0.13196,0.11136 0.9036,1.11498 1.71484,2.22852 1.62626,2.23225 4.1084,4.68609 6.5957,6.52148 1.51868,1.12065 2.11237,1.44108 4.65625,2.51172 1.41284,0.59463 7.19537,0.57196 8.9375,-0.0352 0.79554,-0.27725 1.88899,-0.81166 2.42969,-1.1875 0.9612,-0.66809 0.91569,-0.68232 -2.08203,-0.70312 -5.04144,-0.0349 -8.91777,-1.85552 -12.21875,-5.73633 -2.38563,-2.80467 -4.77259,-8.28274 -4.74219,-10.88281 0.0183,-1.56489 -0.0392,-1.51308 9.9043,-8.68164 2.44978,-1.76613 4.53004,-3.2702 4.62304,-3.3418 0.17681,-0.13605 0.0521,-0.53246 -1.97851,-6.30664 -1.82019,-5.17576 -2.51784,-9.75674 -2.36914,-15.55664 0.12245,-4.7759 0.0947,-4.96242 -0.88477,-6.0293 -1.6089,-1.75241 -5.53466,-4.1279 -8.02929,-4.85937 -1.43827,-0.42173 -3.37408,-0.65603 -5.28125,-0.69141 z m -0.68946,4.08399 c 3.48666,-0.0201 5.49805,0.87414 5.49805,2.44336 0,2.01525 -1.29305,2.55008 -3.89453,1.60937 -1.78778,-0.64647 -4.31229,0.1953 -5.75586,1.91992 -1.24258,1.4845 -2.3934,1.94181 -3.4082,1.35547 -1.20784,-0.69786 -0.87859,-2.60625 0.76171,-4.42187 1.98626,-2.19855 3.59701,-2.88775 6.79883,-2.90625 z m 75.38867,53.76757 c 0.46049,-0.0541 0.96934,-0.028 1.53516,0.0527 3.75182,0.53531 3.78816,1.00278 1.73438,23.00781 -1.16949,12.53015 -1.37326,13.04297 -5.16602,13.04297 h -3.94922 l 0.88281,-15.41406 c 0.9184,-16.05884 1.7395,-20.31041 4.96289,-20.68946 z m -0.6621,39.38477 c 0.642,-0.004 1.27193,0.50327 2.25195,1.51953 3.46721,3.59545 5.92493,14.33574 3.85156,16.83399 -3.46291,4.17253 -6.41144,1.51322 -9.05469,-8.16602 -1.39847,-5.12106 -1.28094,-6.73076 0.62696,-8.63867 1.02938,-1.02939 1.68219,-1.54464 2.32422,-1.54883 z" /><path
         id="path10"
         style="fill:#f38fe3;fill-opacity:1;stroke-width:131.039"
         d="m -584.20312,-393.95508 v 8.23828 8.23828 h 7.80078 7.80078 v 46.66211 c 0,25.66358 0.26031,46.92048 0.57812,47.23829 0.31782,0.31781 32.49797,0.57812 71.50977,0.57812 h 70.92969 v -46.7793 -46.77929 l 10.61914,-0.24219 10.61718,-0.24414 v -8.23438 -8.23437 l -89.92773,-0.22071 z m 32.07031,30.3457 h 53.74023 53.74024 v 17.33594 17.33399 h -53.16211 c -29.23898,0 -53.42243,-0.26032 -53.74024,-0.57813 -0.31782,-0.31782 -0.57812,-8.11734 -0.57812,-17.33398 z m 54.375,82.79493 c -41.4415,0 -73.61429,0.1678 -73.85157,0.38672 -0.23124,0.21336 -1.41573,0.93874 -2.63281,1.61132 -2.58386,1.42788 -5.64634,3.14381 -7.52539,4.2168 -0.73025,0.41699 -2.59003,1.4796 -4.13476,2.36133 -1.54475,0.88174 -2.90965,1.60351 -3.03125,1.60351 -0.1216,0 -0.74842,0.36558 -1.39453,0.81446 -0.64612,0.44888 -2.47052,1.52143 -4.05274,2.38281 -6.91267,3.76337 -7.71851,4.27958 -7.07031,4.51953 0.35914,0.13295 11.40822,0.40486 24.55273,0.60547 l 74.99024,0.74414 c 15.95846,0.19703 42.65797,0.48847 59.33203,0.64844 16.67405,0.15997 31.31221,0.32739 32.52929,0.37109 4.33083,0.15564 4.78435,0.92362 -7.91992,-13.40625 -1.72643,-1.94734 -3.86413,-4.2864 -4.75,-5.19922 l -1.60937,-1.66015 z"
         sodipodi:nodetypes="cccccsssccccccccccccccssscsssssssssccscsccs" /></g><path
       style="fill:#ffffff;stroke-width:80.3549"
       d="m 31.0171,385.45186 c 0.24815,-2.16435 0.19084,-2.82355 -0.19637,-2.25894 -0.30073,0.4385 -0.55044,1.5605 -0.55492,2.49333 -0.004,0.93283 -0.27545,1.86126 -0.60216,2.06317 -0.59087,0.36519 -0.53264,-0.55002 0.36602,-5.7524 0.76055,-4.40288 2.17488,-0.85176 1.90521,4.78362 -0.0455,0.95009 -0.34941,1.72742 -0.67542,1.72742 -0.4079,0 -0.48349,-0.9531 -0.24236,-3.0562 z"
       id="path2" /><path
       style="fill:#ffffff;stroke-width:20.4015"
       d="m 30.78838,404.19731 c -0.55083,-0.33587 -0.65627,-0.54515 -0.985,-1.95498 -0.14901,-0.63907 -0.36745,-1.38823 -0.48541,-1.66479 -0.11797,-0.27657 -0.35848,-1.28581 -0.53447,-2.24278 -0.33926,-1.84472 -1.0185,-3.57802 -1.50396,-3.83783 -0.1384,-0.0741 -0.64476,-0.20237 -1.12525,-0.28511 -0.4805,-0.0827 -1.63468,-0.33082 -2.56486,-0.55129 -0.93017,-0.22047 -2.2854,-0.48308 -3.01162,-0.58359 -1.43617,-0.19877 -1.9413,-0.45206 -2.14997,-1.0781 -0.0872,-0.26162 -0.0702,-0.43097 0.059,-0.58808 0.31148,-0.37878 1.74992,-0.9468 2.98137,-1.17729 0.64931,-0.12154 1.70619,-0.37329 2.34862,-0.55946 0.64243,-0.18617 1.44715,-0.37597 1.78828,-0.42179 0.95467,-0.12821 1.7304,-0.5141 2.03803,-1.01382 0.44483,-0.72259 0.91544,-2.3983 1.15011,-4.09526 0.12075,-0.87313 0.33361,-1.87691 0.47304,-2.23063 0.13942,-0.35372 0.37781,-1.14262 0.52976,-1.75313 0.34925,-1.40325 0.41563,-1.48596 1.05733,-1.31739 0.64735,0.17005 0.92607,0.51061 1.18281,1.44524 0.11481,0.41793 0.36061,1.25426 0.54622,1.85851 0.18561,0.60424 0.48095,1.78841 0.65631,2.63147 0.62586,3.00891 0.87131,3.53694 1.85731,3.99548 0.31659,0.14724 1.0918,0.34081 1.72268,0.43017 0.63087,0.0894 1.8454,0.33653 2.69894,0.54927 0.85355,0.21273 1.94662,0.4295 2.42906,0.4817 1.27846,0.13832 1.44782,0.22981 1.62185,0.8761 0.27476,1.02036 -0.1002,1.19832 -5.06301,2.40301 -1.26176,0.30628 -2.37394,0.55681 -2.47151,0.55673 -0.0976,-7e-5 -0.48042,0.13022 -0.85077,0.28954 -1.03569,0.44554 -1.22579,0.92404 -1.94286,4.8905 -0.54968,3.04054 -1.32616,5.21197 -1.86313,5.21027 -0.0874,-2.8e-4 -0.35238,-0.11848 -0.58886,-0.26267 z"
       id="path3" /><path
       id="path4"
       style="fill:#ffffff;stroke-width:55.2353"
       d="m 449.57476,271.89058 -0.33399,0.39453 c -0.18398,0.21699 -0.37814,0.67566 -0.43164,1.01953 -0.18617,1.19563 -0.61976,2.70191 -0.91797,3.19141 -0.25964,0.4262 -0.52399,0.55033 -1.9707,0.91211 -1.89974,0.47507 -2.84368,1.05866 -2.41016,1.49219 0.14186,0.14185 0.83745,0.31294 1.63672,0.40234 0.76464,0.0856 1.64224,0.2604 1.94922,0.38867 0.75951,0.31734 1.25805,1.19302 1.57617,2.77149 0.14678,0.72831 0.37309,1.53591 0.50391,1.79297 0.28325,0.55663 0.39094,0.57195 0.94922,0.13281 0.34631,-0.27241 0.48035,-0.62926 0.71875,-1.91211 0.1612,-0.86744 0.3297,-1.71563 0.375,-1.88281 0.15644,-0.57694 1.27284,-1.1296 2.62304,-1.30078 1.73825,-0.22039 2.25372,-0.42628 2.04493,-0.81641 -0.34651,-0.64747 -0.87268,-0.92048 -2.23438,-1.1582 -1.96836,-0.34363 -2.22911,-0.5021 -2.51562,-1.51954 -0.61634,-2.18876 -0.98947,-3.23701 -1.26368,-3.55859 z M 270.00835,373.34566 c -0.63066,-0.0205 -0.65532,0.95036 -0.13086,2.89062 0.34425,1.2736 0.75621,3.15826 0.91602,4.1875 0.15981,1.02929 0.47159,2.21063 0.69336,2.625 0.22173,0.41438 0.40234,1.23661 0.40234,1.82813 0,0.59151 0.24553,1.66235 0.54492,2.37891 0.2994,0.71652 0.58833,2.30647 0.64063,3.5332 l 0.0937,2.23047 -2.5625,2.44726 c -1.40932,1.34665 -2.97104,2.77749 -3.47071,3.17969 -0.49968,0.40219 -1.72964,1.38639 -2.73437,2.18555 -3.03245,2.41198 -5.04218,4.6446 -4.49414,4.99218 0.74641,0.47344 1.67469,0.36854 5.58984,-0.6289 9.33663,-2.37862 11.60088,-2.79702 12.75195,-2.35938 0.72733,0.27653 2.28649,1.92725 5.15039,5.45508 2.12527,2.61797 5.73906,6.61286 6.75391,7.4668 0.63632,0.53543 1.39176,0.97461 1.67773,0.97461 0.74829,0 0.64479,-2.77699 -0.24414,-6.57617 -1.19998,-5.12877 -1.30568,-5.55263 -2.11328,-8.48828 -0.4274,-1.55365 -0.77734,-3.15753 -0.77734,-3.5625 0,-1.07751 2.1241,-3.25546 7.48437,-7.67969 5.54935,-4.58031 6.20116,-5.24825 5.89844,-6.03711 -0.29891,-0.77893 -2.11817,-0.50337 -8.99805,1.36719 -2.91369,0.79217 -6.21077,1.53023 -7.32617,1.63867 -1.9252,0.18718 -2.09135,0.13399 -3.29687,-1.03516 -0.69843,-0.67736 -2.00149,-2.13502 -2.89453,-3.24023 -0.89304,-1.10521 -2.69575,-3.2377 -4.00782,-4.73828 -2.92437,-3.34463 -4.73602,-5.00886 -5.54687,-5.03516 z m -61.22266,88.79687 c -0.0604,0.007 -0.12975,0.0643 -0.21093,0.16211 -0.15839,0.19084 -0.50077,1.22729 -0.50977,1.54297 -0.003,0.11406 -0.0761,0.39299 -0.16211,0.6211 -0.086,0.22811 -0.24083,0.70595 -0.34375,1.06054 -0.39079,1.34626 -0.97122,1.72795 -3.01758,1.99219 l -1.29492,0.16797 -0.0312,0.5332 c -0.0365,0.62571 -0.0677,0.60798 1.22266,0.70508 1.00957,0.0759 2.01486,0.30032 2.36133,0.52734 0.21681,0.14208 0.42151,0.52002 1.04687,1.9336 0.1193,0.26968 0.31451,0.96839 0.43359,1.55273 0.11908,0.58435 0.26588,1.12066 0.32618,1.19336 0.26298,0.31687 0.41523,0.0726 0.60156,-0.95703 0.28509,-1.57517 0.43408,-2.07825 0.84961,-2.87695 0.36959,-0.7104 0.49482,-0.85926 0.85547,-1.01758 0.42549,-0.18678 1.16048,-0.33632 2.26757,-0.46094 0.53278,-0.06 0.62558,-0.10594 0.80274,-0.39648 0.11021,-0.18078 0.20096,-0.42664 0.20117,-0.54688 4e-4,-0.2248 -0.26548,-0.29276 -1.96875,-0.50586 -0.83351,-0.10428 -1.4206,-0.35543 -1.79297,-0.76757 -0.58459,-0.64707 -0.9871,-1.63913 -1.17187,-2.88282 -0.17394,-1.17077 -0.28367,-1.60201 -0.46485,-1.58008 z m 172.1543,7.53125 c -0.0372,-0.009 -0.0745,-0.007 -0.10938,0.004 -0.27116,0.0887 -0.74104,1.56615 -1.26757,3.97852 -0.14637,0.67062 -0.44034,2.0118 -0.65235,2.98046 -0.45248,2.0673 -1.40193,3.13096 -3.01758,3.38086 -0.56542,0.0874 -1.82039,0.40006 -2.78906,0.69532 -0.96868,0.29526 -2.21848,0.5352 -2.77734,0.5332 -0.89677,-0.003 -1.01758,0.0745 -1.01758,0.65625 0,0.73218 0.17085,0.81243 2.57422,1.22266 3.70991,0.63324 5.43057,1.12635 5.99219,1.71679 0.63268,0.66514 1.45898,2.61909 1.45898,3.44727 0,0.44159 1.05592,4.43451 1.48633,5.62109 0.0676,0.18629 0.35969,0.33789 0.64844,0.33789 0.42844,0 0.56095,-0.26096 0.71679,-1.42187 0.10503,-0.78239 0.33976,-1.78925 0.52344,-2.23633 0.18368,-0.44708 0.42264,-1.60359 0.5293,-2.57227 0.23115,-2.09923 1.14385,-3.69692 2.26172,-3.95703 0.40954,-0.0953 1.9026,-0.4632 3.31836,-0.8164 1.41574,-0.3532 2.76713,-0.64353 3.00195,-0.64453 0.23482,-10e-4 0.69976,-0.29338 1.03516,-0.6504 l 0.61132,-0.65039 -1.44336,-0.19531 c -0.79375,-0.10722 -1.67497,-0.31635 -1.95703,-0.46484 -0.28207,-0.14849 -1.35546,-0.37442 -2.38672,-0.50391 -2.98207,-0.37445 -3.94972,-1.20976 -4.51757,-3.90429 -0.84647,-4.01665 -1.66411,-6.42216 -2.22266,-6.55665 z" /><path
       id="path6"
       style="fill:#ffffff;stroke-width:36.3981"
       d="m 481.2603,192.47261 c -0.54873,0.005 -1.01994,1.43689 -1.8164,5.20117 -0.91017,4.30164 -0.8057,4.08292 -2.29297,4.78711 -0.73113,0.34617 -1.51578,0.62891 -1.74414,0.62891 -0.75831,0 -5.83274,1.35031 -6.10742,1.625 -0.41993,0.41993 1.09737,1.21347 2.66796,1.39648 2.47912,0.28887 5.70047,1.15306 6.29102,1.6875 0.23233,0.21025 0.48826,0.67295 0.56836,1.02735 0.26621,1.17759 1.15319,4.47034 1.74414,6.47265 0.56514,1.91488 0.60054,1.96749 1.14648,1.71875 0.3559,-0.16216 0.61217,-0.53394 0.69727,-1.01171 0.51867,-2.91161 1.64019,-7.44695 1.96289,-7.93946 0.40761,-0.62208 3.25313,-1.65379 5.38672,-1.95312 0.57667,-0.0809 1.35565,-0.30712 1.73242,-0.50196 0.37678,-0.19484 0.88084,-0.35542 1.11914,-0.35742 0.23831,-0.002 0.59499,-0.10726 0.79297,-0.23242 0.31035,-0.19617 0.29758,-0.27298 -0.0957,-0.56055 -0.53033,-0.38778 -3.07748,-1.04506 -4.89649,-1.26367 -3.1083,-0.37354 -4.37311,-1.38732 -4.88672,-3.91406 -0.47925,-2.35771 -1.60641,-6.33297 -1.87109,-6.59766 -0.13979,-0.13979 -0.27181,-0.21396 -0.39844,-0.21289 z" /><path
       id="path7"
       style="fill:#ffffff;stroke-width:36.2619"
       d="m 133.74812,27.322983 c -0.0789,-0.0021 -0.17995,0.01094 -0.30664,0.03516 -0.50027,0.09563 -0.62687,0.315256 -0.84765,1.466797 -0.14272,0.744396 -0.37349,1.784813 -0.51368,2.3125 -0.14019,0.527686 -0.379,1.660088 -0.53125,2.517578 -0.34875,1.964188 -1.11816,3.055419 -2.29882,3.261719 -0.47103,0.08231 -1.08367,0.293238 -1.36133,0.466797 -0.27766,0.173559 -1.28209,0.42299 -2.23242,0.554687 -0.95035,0.131697 -1.85651,0.340375 -2.01368,0.464844 -0.15718,0.12447 -0.71659,0.365619 -1.24218,0.535156 -0.8153,0.262989 -0.8865,0.335563 -0.48047,0.494141 0.26174,0.102228 0.82418,0.193825 1.24804,0.203125 0.42386,0.0093 1.31695,0.23225 1.98633,0.496093 0.66937,0.263843 1.64874,0.480469 2.17578,0.480469 1.78207,0 4.06055,1.424939 4.06055,2.539063 0,0.317551 0.20806,1.197957 0.46094,1.957031 0.25288,0.759074 0.52527,1.866386 0.60547,2.460937 0.0802,0.594552 0.42593,1.673774 0.76953,2.398438 l 0.625,1.318359 0.44726,-1.679687 c 0.24592,-0.923451 0.55772,-2.327612 0.69336,-3.119141 0.4104,-2.395025 1.17976,-4.686572 1.62696,-4.849609 0.22514,-0.08208 0.66585,-0.346502 0.98046,-0.587891 0.33451,-0.256656 0.98138,-0.442465 1.5586,-0.447265 0.54288,-0.0045 1.41957,-0.215814 1.94726,-0.470704 0.52769,-0.25489 1.29673,-0.466203 1.70899,-0.470703 1.19285,-0.01295 2.24814,-0.285094 2.24414,-0.578125 -0.009,-0.663157 -0.5182,-0.892732 -2.53125,-1.138672 -1.17837,-0.143964 -2.41043,-0.396675 -2.74024,-0.5625 -0.32979,-0.165824 -1.06306,-0.361323 -1.6289,-0.433593 -0.56584,-0.07227 -1.19413,-0.269564 -1.39649,-0.4375 -0.62208,-0.516289 -1.23635,-1.955203 -1.63085,-3.826172 -0.20724,-0.982843 -0.53897,-2.317251 -0.73829,-2.964844 -0.19932,-0.647594 -0.36328,-1.469668 -0.36328,-1.826172 0,-0.418977 -0.0446,-0.564174 -0.28125,-0.570312 z m -12.50976,51.568359 c -0.11637,-0.01332 -0.19896,0.06387 -0.30078,0.203125 -0.48731,0.666436 -0.63413,4.051418 -0.35938,8.289063 0.14112,2.176702 0.2572,5.851349 0.25781,8.166015 l 0.002,4.208985 -0.90039,0.78516 c -1.76242,1.53896 -2.34363,1.95088 -2.75782,1.95116 -0.23086,1.7e-4 -0.41992,0.11144 -0.41992,0.24805 0,0.13661 -0.45886,0.45931 -1.01953,0.7168 -0.56066,0.25749 -1.18102,0.57727 -1.37891,0.71093 -0.19788,0.13367 -0.62917,0.35747 -0.95898,0.4961 -0.3298,0.13863 -1.03287,0.51287 -1.56055,0.83398 -0.52769,0.32111 -1.40504,0.794 -1.95117,1.04883 -0.54614,0.25483 -1.06058,0.57044 -1.14258,0.70313 -0.082,0.13269 -0.47098,0.3138 -0.86523,0.40039 -0.39426,0.0866 -0.7168,0.2605 -0.7168,0.38867 0,0.12817 -0.40569,0.40207 -0.90039,0.60742 -0.49471,0.20535 -0.9863,0.52335 -1.0918,0.70703 -0.1055,0.18369 -0.30496,0.33399 -0.44336,0.33399 -0.46012,0 -1.61914,1.42371 -1.31836,1.61914 0.468,0.30405 10.63895,0.0788 14.10938,-0.3125 3.00307,-0.33863 3.40755,-0.33683 4.79688,0.0215 0.83452,0.21523 1.71473,0.56956 1.95703,0.78711 0.81517,0.73186 1.81432,2.42376 1.96875,3.33593 0.22311,1.31795 1.51411,4.44255 2.01562,4.87696 0.23695,0.20525 0.51438,0.63655 0.61524,0.95899 0.46003,1.47056 4.07103,7.30956 5.2207,8.4414 0.46168,0.45451 0.91993,0.66016 1.47266,0.66016 0.65179,0 0.8502,-0.12417 1.0625,-0.66016 0.86479,-2.18343 0.91684,-4.2436 0.29296,-11.8125 -0.12505,-1.5171 -0.23418,-4.19578 -0.24218,-5.95117 l -0.0137,-3.19141 0.7793,-0.72266 c 0.42875,-0.39804 1.15741,-0.93625 1.61914,-1.19531 0.46173,-0.25905 1.27115,-0.72921 1.79883,-1.04492 0.52769,-0.31571 1.33711,-0.78266 1.79883,-1.03711 3.07679,-1.69561 5.02029,-2.73654 5.68164,-3.04492 0.7293,-0.34007 2.30785,-1.31773 2.84961,-1.765623 0.14023,-0.115934 0.50649,-0.346903 0.81445,-0.511719 1.00903,-0.54001 2.16797,-1.881073 2.16797,-2.507812 0,-1.075367 -0.66695,-1.219702 -5.39648,-1.169922 -7.26154,0.07643 -13.38642,0.438256 -14.1836,0.835937 -0.95705,0.477439 -2.02706,0.106897 -2.90234,-1.003906 -0.66289,-0.841267 -0.86296,-1.162322 -1.86133,-2.986328 -0.29158,-0.532719 -0.94831,-1.723033 -1.45898,-2.646485 -0.51066,-0.92345 -1.22701,-2.219297 -1.5918,-2.878906 -0.36479,-0.659606 -0.7949,-1.469024 -0.95703,-1.798828 -0.16212,-0.329804 -0.54246,-0.93358 -0.84375,-1.341797 -0.3013,-0.408216 -0.54688,-0.867081 -0.54688,-1.019531 0,-0.15245 -0.095,-0.277344 -0.21094,-0.277344 -0.1159,0 -0.3365,-0.302675 -0.49023,-0.673828 -0.15374,-0.371153 -0.77914,-1.195926 -1.38867,-1.832031 -0.62623,-0.653517 -0.91349,-0.927022 -1.10742,-0.949219 z" /><path
       id="path8"
       style="fill:#ffffff;stroke-width:16.0651"
       d="m 354.52007,17.751909 c -0.21087,0 -0.30292,0.341469 -0.50196,1.867188 -0.23233,1.781046 -1.03837,3.228515 -1.79687,3.228515 -1.04196,0 -2.36411,0.376832 -2.82422,0.806641 -0.26897,0.251253 -0.4508,0.518427 -0.4043,0.59375 0.0466,0.07532 0.71413,0.226539 1.48438,0.333984 2.27991,0.318037 2.20348,0.285849 2.82031,1.181641 0.46897,0.681055 0.5978,1.048794 0.73047,2.095703 0.0885,0.698446 0.2006,1.397257 0.25,1.552735 0.29192,0.919784 1.21974,-0.410273 1.56836,-2.248047 0.38162,-2.011767 0.57873,-2.193454 2.80664,-2.570313 1.2524,-0.211849 1.32503,-0.25335 1.54492,-0.896484 0.20288,-0.593389 0.17767,-0.605852 -1.71093,-0.78125 -1.30519,-0.121216 -1.97024,-0.378991 -2.23047,-0.865235 -0.0927,-0.173269 -0.3466,-0.92987 -0.56446,-1.68164 -0.42054,-1.451197 -0.94202,-2.617188 -1.17187,-2.617188 z M 52.00249,159.79878 c -0.54454,0 -0.55252,0.004 -0.66992,0.39844 -0.0653,0.21917 -0.18669,0.92978 -0.27149,1.58008 -0.16029,1.2288 -0.29126,1.60098 -0.73242,2.07617 -0.40096,0.43188 -0.79984,0.58472 -1.70898,0.6582 -0.45806,0.0371 -0.99031,0.14268 -1.1836,0.23438 -0.45071,0.21387 -1.24292,0.88822 -1.17382,1 0.0653,0.10565 1.17742,0.37209 2.42968,0.58203 0.78808,0.13212 1.02257,0.22196 1.45117,0.54883 0.61296,0.46745 0.75991,0.79104 1.03907,2.29297 0.22735,1.22326 0.45065,1.66185 1.01953,2.00781 l 0.32812,0.19922 0.13282,-0.25195 c 0.073,-0.13941 0.20622,-0.90883 0.29492,-1.70899 0.1788,-1.6127 0.25963,-1.81562 1.00195,-2.50781 0.47344,-0.44147 0.52952,-0.46199 1.95899,-0.74219 0.80961,-0.15871 1.52037,-0.33874 1.58007,-0.39844 0.1508,-0.15081 0.004,-1.04714 -0.18359,-1.11914 -0.0828,-0.0318 -0.52351,-0.085 -0.97852,-0.11914 -1.88316,-0.14118 -1.93435,-0.15343 -2.38281,-0.55859 -0.6721,-0.60719 -0.89662,-1.10901 -1.03711,-2.3125 -0.0682,-0.58445 -0.17854,-1.24177 -0.24414,-1.46094 -0.11784,-0.39349 -0.12546,-0.39844 -0.66992,-0.39844 z" /></g></svg>
