<?xml version="1.0" encoding="UTF-8" standalone="no"?>
<!-- Created with Inkscape (http://www.inkscape.org/) -->

<svg
   version="1.1"
   id="svg1"
   width="512"
   height="512"
   viewBox="0 0 512 512"
   sodipodi:docname="quiz-background.svg"
   xml:space="preserve"
   inkscape:version="1.3.2 (091e20e, 2023-11-25)"
   xmlns:inkscape="http://www.inkscape.org/namespaces/inkscape"
   xmlns:sodipodi="http://sodipodi.sourceforge.net/DTD/sodipodi-0.dtd"
   xmlns="http://www.w3.org/2000/svg"
   xmlns:svg="http://www.w3.org/2000/svg"><defs
     id="defs1" /><sodipodi:namedview
     id="namedview1"
     pagecolor="#505050"
     bordercolor="#eeeeee"
     borderopacity="1"
     inkscape:showpageshadow="0"
     inkscape:pageopacity="0"
     inkscape:pagecheckerboard="0"
     inkscape:deskcolor="#505050"
     inkscape:zoom="0.64273798"
     inkscape:cx="241.15581"
     inkscape:cy="277.71815"
     inkscape:window-width="1440"
     inkscape:window-height="764"
     inkscape:window-x="0"
     inkscape:window-y="25"
     inkscape:window-maximized="0"
     inkscape:current-layer="g1" /><g
     inkscape:groupmode="layer"
     inkscape:label="Image"
     id="g1"><g
       id="g2"
       transform="translate(-29.89811)"><path
         style="fill:#f4f4f4;fill-opacity:1;stroke:none;stroke-width:7.88713"
         d=""
         id="path5" /><path
         id="path12"
         style="fill:#f4f4f4;stroke-width:9.01719"
         d="m 214.22265,35.30819 c -6.29405,0.0277 -12.20042,0.40889 -16.34765,1.18946 -21.95673,4.13254 -41.9308,14.62032 -57.92578,30.41406 l -7.96485,7.86523 -5.3789,-3.15234 C 112.08217,63.11274 100.54983,60.10926 84.79492,60.73593 72.27877,61.23378 66.43845,62.944 57.59961,68.70272 52.0077,72.34599 44.66797,79.44787 44.66797,81.21444 c 0,0.62376 42.13607,0.92188 130.29883,0.92188 71.66399,0 130.29882,-0.23107 130.29882,-0.51367 0,-1.71387 -6.50797,-9.36545 -13.97851,-16.43555 C 277.38225,52.02757 261.31285,43.02985 242.5957,37.92343 236.28287,36.20115 224.71276,35.26211 214.22265,35.30819 Z m -71.55468,132.48242 c -1.66409,-0.15292 -1.95899,2.27052 -1.95899,11.77149 0,5.75842 0.30212,14.19643 0.67188,18.75 0.48341,5.95273 0.47427,8.74282 -0.0352,9.92969 -0.61202,1.42589 -5.71503,5.84179 -6.75,5.84179 -0.19934,0 -1.44431,0.67567 -2.76758,1.5 -1.32324,0.82432 -5.30991,3.05013 -8.85742,4.94727 -3.54749,1.89713 -7.03073,3.76342 -7.74023,4.14648 -3.78622,2.04422 -7.41602,5.06984 -7.41602,6.17969 0,1.96744 3.64258,2.2306 17.0918,1.23438 13.64738,-1.01089 19.16626,-1.11949 21.70312,-0.42383 1.27229,0.34889 2.63206,2.01513 5.32227,6.52344 1.98698,3.32982 3.61133,6.22603 3.61133,6.4375 0,1.04882 10.65905,18.43041 12.41797,20.25 2.39978,2.48255 2.77483,2.54822 3.7832,0.66406 0.56515,-1.05599 0.6544,-5.3297 0.33789,-16.28516 -0.23603,-8.16995 -0.5814,-16.45121 -0.76758,-18.40234 -0.59047,-6.188 0.0765,-6.80303 17.99414,-16.60156 12.48023,-6.82502 16.3715,-9.62132 15.72852,-11.29688 -0.6649,-1.73271 -5.61499,-1.98196 -17.45508,-0.87891 -12.73544,1.18648 -18.98761,1.31241 -21.31445,0.42774 -1.78765,-0.67966 -4.44742,-4.55858 -9.10547,-13.27735 -6.28809,-11.76974 -11.95916,-20.56108 -13.69336,-21.22656 -0.29675,-0.11387 -0.56306,-0.18909 -0.80078,-0.21094 z"
         sodipodi:nodetypes="cccccsssssssccsssssssssssssssssssssscc" /><path
         id="path13"
         style="fill:#f4f4f4;stroke-width:1.64586"
         d="m 312.06055,185.7828 c -0.082,0.0132 -0.16264,0.0713 -0.28125,0.16797 -1.14211,0.93055 -1.88291,1.59644 -2.07032,1.86133 -0.11828,0.16719 -0.31537,0.30469 -0.43945,0.30469 -0.12409,0 -0.36152,0.16547 -0.52734,0.36914 -0.64225,0.78885 -2.07257,1.57897 -3.22071,1.77734 -0.61148,0.10565 -1.15302,0.25876 -1.20312,0.33984 -0.13956,0.22581 -1.4991,0.17507 -2.84375,-0.10546 -1.46574,-0.30578 -4.21465,-0.39757 -4.46485,-0.14844 -0.12618,0.12564 -0.0265,0.38667 0.34571,0.90625 0.51877,0.72416 0.78682,1.04753 2.36523,2.85547 0.45261,0.51842 0.93257,1.14908 1.06836,1.40234 0.13578,0.25327 0.37421,0.63848 0.5293,0.85547 0.25301,0.35399 0.83708,3.22038 0.70117,3.44141 -0.11609,0.18879 -0.43836,5.59559 -0.34766,5.83203 0.17326,0.45149 0.91161,0.24566 1.69727,-0.47266 0.55832,-0.51046 1.49024,-1.31149 1.98047,-1.70312 0.25309,-0.20219 0.76561,-0.627 1.13867,-0.94532 0.37306,-0.31832 0.77949,-0.57973 0.9043,-0.58007 0.12481,-3.4e-4 0.67171,-0.2213 1.21484,-0.49219 0.89976,-0.44873 1.13498,-0.49358 2.64453,-0.49414 1.78679,-6.7e-4 3.23717,0.20035 4.24219,0.58789 0.37887,0.14579 0.85002,0.20368 1.17578,0.14258 0.44403,-0.0833 0.56289,-0.19544 0.64649,-0.61328 0.0814,-0.40726 0.0171,-0.59734 -0.31055,-0.93165 -2.15599,-2.19967 -3.54297,-3.86634 -3.54297,-4.25585 0,-0.14376 -0.20419,-0.55504 -0.45313,-0.91407 -0.4284,-0.61789 -0.45411,-0.77 -0.50781,-2.82422 -0.062,-2.37385 0.17834,-4.91474 0.50196,-5.30468 0.17139,-0.20654 0.11458,-0.32408 -0.3418,-0.70508 -0.32375,-0.27028 -0.46483,-0.3755 -0.60156,-0.35352 z m 25.63671,249.27344 c -0.92044,0.009 -1.25488,2.01365 -1.68164,6.20898 -0.34467,3.38844 -1.00088,6.64633 -1.63867,8.12891 -1.23453,2.86975 -5.99113,7.5134 -10.42969,10.18164 -0.94028,0.56526 -1.39212,1.22712 -1.29492,1.89652 0.13183,0.9075 0.84967,1.1154 6.10742,1.7539 8.92937,1.0843 12.01978,2.9626 17.05079,10.3711 1.71787,2.5296 2.44989,3.207 3.32812,3.082 0.94251,-0.1343 1.14506,-0.5378 1.24805,-2.4902 0.0677,-1.2824 0.38019,-4.0426 0.69336,-6.1329 1.00406,-6.7012 2.33321,-8.79752 8.55468,-13.49214 2.50262,-1.88844 4.63831,-3.70992 4.7461,-4.04687 0.33124,-1.0354 -1.61251,-1.66927 -6.14844,-2.00586 -8.28118,-0.61451 -11.33607,-2.2954 -16.25977,-8.94922 -2.19504,-2.96636 -3.46323,-4.51349 -4.27539,-4.50586 z" /><path
         style="fill:#f4f4f4;stroke-width:10.0597"
         d="m 289.81391,324.45558 -21.53379,-0.53326 6.1698,-5.70999 c 8.05982,-7.45916 16.55471,-11.5713 26.83808,-12.99153 15.74028,-2.1739 30.44945,0.65473 45.58403,8.76596 l 8.36313,4.48215 7.73238,-7.22716 c 21.27151,-19.88165 44.71443,-30.58767 69.59954,-31.78503 28.28659,-1.36102 50.47112,5.21289 71.82401,21.28354 7.14679,5.37883 22.73716,20.81165 22.73716,22.50738 0,0.47098 -10.52496,1.15393 -23.3888,1.51767 -26.16453,0.73982 -180.57046,0.51627 -213.92554,-0.30973 z"
         id="path1" /></g></g></svg>
