<?xml version="1.0" encoding="UTF-8" standalone="no"?>
<!-- Created with Inkscape (http://www.inkscape.org/) -->

<svg
   version="1.1"
   id="svg1"
   width="512"
   height="512"
   viewBox="0 0 512 512"
   sodipodi:docname="question-mark.svg"
   xml:space="preserve"
   inkscape:version="1.3.2 (091e20e, 2023-11-25)"
   xmlns:inkscape="http://www.inkscape.org/namespaces/inkscape"
   xmlns:sodipodi="http://sodipodi.sourceforge.net/DTD/sodipodi-0.dtd"
   xmlns="http://www.w3.org/2000/svg"
   xmlns:svg="http://www.w3.org/2000/svg"><defs
     id="defs1" /><sodipodi:namedview
     id="namedview1"
     pagecolor="#505050"
     bordercolor="#eeeeee"
     borderopacity="1"
     inkscape:showpageshadow="0"
     inkscape:pageopacity="0"
     inkscape:pagecheckerboard="0"
     inkscape:deskcolor="#505050"
     inkscape:zoom="0.49107243"
     inkscape:cx="432.72639"
     inkscape:cy="512.14441"
     inkscape:window-width="1440"
     inkscape:window-height="900"
     inkscape:window-x="0"
     inkscape:window-y="0"
     inkscape:window-maximized="0"
     inkscape:current-layer="g1" /><g
     inkscape:groupmode="layer"
     inkscape:label="Image"
     id="g1"><path
       style="fill:#f4f4f4;fill-opacity:1;stroke:none;stroke-width:7.88713"
       d=""
       id="path5" /><g
       id="g11"
       transform="matrix(1.0962936,0,0,1.0962936,-29.60558,-38.834908)"><path
         id="path1"
         style="fill:#ffffff;stroke:none;stroke-width:4.52758"
         d="m 257.8457,56.242188 -1.29882,2.892578 c -1.93686,4.315501 -2.61773,8.356287 -1.87305,11.105468 0.79467,2.933743 1.46195,4.188899 3.13086,5.88086 2.19657,2.226903 7.8325,4.695312 10.71679,4.695312 0.81379,0 1.53868,0.332559 1.86524,0.855469 0.45326,0.725775 0.19901,1.385838 -1.6836,4.367187 -3.26937,5.17751 -3.85192,9.099469 -1.94531,13.097657 1.23172,2.582941 7.49868,5.659971 11.55274,5.671871 2.34114,0.007 3.98437,0.84294 3.98437,2.0293 0,0.53579 -0.39886,1.8008 -0.88672,2.81055 -1.22388,2.53312 -2.26934,5.62112 -2.27734,6.73242 -0.0114,1.6038 1.06442,3.28996 2.70898,4.24414 2.01808,1.17042 3.11804,1.16884 5.7793,-0.01 5.69357,-2.52153 6.80231,-3.25236 7.76953,-5.12109 0.9566,-1.84821 1.94352,-3.59314 4.83985,-8.55469 0.84362,-1.44518 1.53515,-2.72178 1.53515,-2.83789 0,-0.11611 0.47402,-0.97153 1.05469,-1.90039 0.58067,-0.92887 1.67113,-2.810096 2.42383,-4.179686 0.75269,-1.369588 1.94282,-3.508825 2.64258,-4.753906 0.69974,-1.245082 1.66403,-2.9761 2.14453,-3.847656 0.48051,-0.871557 1.0596,-1.779059 1.28515,-2.015625 0.7561,-0.793028 0.42014,-1.39555 -1.27734,-2.296875 -1.90952,-1.013917 -9.17969,-7.999403 -9.17969,-8.820313 0,-0.295288 -0.41441,-1.11938 -0.92187,-1.832031 -1.72885,-2.427939 -3.06729,-7.038049 -3.39844,-11.708984 l -0.31641,-4.462891 -1.86914,-0.300781 c -1.71228,-0.275673 -9.54925,-0.664525 -29.14844,-1.447266 z m 42.69141,1.839843 -0.25195,1.292969 c -0.39437,2.022538 0.76744,9.911964 1.52929,10.382812 0.22031,0.136157 0.40039,0.543591 0.40039,0.90625 0,0.961958 3.13464,5.606457 4.97852,7.376954 0.87305,0.838314 2.50443,2.21081 3.625,3.050781 1.12058,0.839971 2.30826,1.477649 2.63867,1.417969 0.3304,-0.05968 1.16701,-1.126011 1.85938,-2.371094 1.3304,-2.392483 3.20749,-5.742685 4.69531,-8.376953 0.49225,-0.871557 1.40878,-2.50052 2.03711,-3.621094 1.19471,-2.130681 2.17343,-3.865923 3.73828,-6.628906 0.51325,-0.906173 0.76836,-1.80192 0.56641,-1.990235 -0.20195,-0.188315 -3.93322,-0.46648 -8.29102,-0.61914 -4.35779,-0.15266 -10.08419,-0.399494 -12.72461,-0.548828 z m -48.55859,0.09766 c -0.42046,0 -1.97129,0.583174 -3.44727,1.296874 -2.56391,1.239771 -3.93583,1.869864 -9.02148,4.136719 -1.24509,0.554976 -3.48637,1.570754 -4.98047,2.257813 -3.93721,1.810505 -7.85401,3.592628 -10.1875,4.636718 -1.12058,0.501381 -3.25981,1.47607 -4.75391,2.164063 -2.55823,1.178 -4.82484,2.196258 -9.05469,4.070313 -4.18685,1.855017 -6.49321,2.891529 -9.05664,4.070312 -4.08854,1.880117 -7.91143,3.619877 -10.18554,4.634766 -2.05411,0.916686 -4.1152,1.852959 -9.50977,4.324218 -1.61861,0.741484 -3.85794,1.75839 -4.97852,2.259766 -1.12052,0.501376 -3.2598,1.464686 -4.7539,2.140625 -1.4941,0.67594 -3.53323,1.590625 -4.5293,2.033203 -0.99606,0.442584 -3.1353,1.418023 -4.75391,2.166016 -1.61856,0.747988 -3.75783,1.713083 -4.7539,2.144523 -0.99606,0.43148 -2.82913,1.24851 -4.07422,1.81641 -6.68543,3.04935 -8.30875,3.74562 -9.96094,4.27539 -0.99607,0.31938 -2.11671,0.84075 -2.49023,1.1582 -0.37353,0.31751 -1.69827,1.03008 -2.94336,1.58399 -1.24508,0.55389 -3.48442,1.56724 -4.97852,2.25195 -1.4941,0.68471 -3.53322,1.60267 -4.52929,2.03906 -0.99606,0.43643 -3.03325,1.35554 -4.52735,2.04297 -2.87173,1.32129 -6.20066,2.80883 -8.82812,3.94532 -1.97208,0.853 -3.63071,1.60982 -15.05469,6.85937 -1.556341,0.71518 -3.644563,1.64962 -4.640625,2.07617 -3.216167,1.37727 -4.080734,1.98859 -3.927734,2.7793 0.130344,0.67364 0.896914,2.42806 4.132812,9.46484 0.458044,0.99607 1.140408,2.52302 1.515625,3.39453 1.532122,3.5588 2.756142,6.14361 3.164062,6.67774 0.54712,0.71638 0.40122,0.73547 2.92969,-0.38477 1.18012,-0.52285 2.5547,-1.11312 3.05273,-1.3125 0.49803,-0.19938 1.87066,-0.78965 3.05078,-1.3125 1.18012,-0.52285 2.24292,-0.95117 2.36328,-0.95117 0.12042,0 1.39729,-0.53139 2.83594,-1.17969 1.43865,-0.64827 3.02346,-1.34063 3.52149,-1.53906 0.49803,-0.19843 1.87066,-0.7877 3.05078,-1.31055 1.18011,-0.5228 2.24481,-0.95117 2.36523,-0.95117 0.12042,0 1.39534,-0.52942 2.83399,-1.17773 1.43865,-0.64831 3.02344,-1.33545 3.52148,-1.52539 1.72599,-0.65822 4.29527,-1.74462 8.60156,-3.63672 1.24509,-0.54706 2.67189,-1.15804 3.16993,-1.35742 0.49803,-0.19938 1.87067,-0.78965 3.05078,-1.3125 1.18012,-0.52285 2.24481,-0.95117 2.36523,-0.95117 0.12041,0 1.39534,-0.52943 2.83399,-1.17774 1.43861,-0.64831 3.02345,-1.34258 3.52148,-1.54101 0.49804,-0.19843 1.87067,-0.7877 3.05078,-1.31055 1.18012,-0.52285 2.24482,-0.95117 2.36524,-0.95117 0.12041,0 1.39533,-0.52943 2.83398,-1.17774 1.43866,-0.64831 3.02345,-1.34158 3.52148,-1.53906 0.49804,-0.19748 2.08284,-0.8888 3.52149,-1.53711 1.43865,-0.64831 2.71356,-1.17969 2.83398,-1.17969 0.12041,0 1.18512,-0.42637 2.36524,-0.94922 1.18011,-0.52285 2.55275,-1.11406 3.05078,-1.3125 0.49803,-0.19843 2.08283,-0.89075 3.52148,-1.53906 1.43865,-0.64831 2.71357,-1.17773 2.83399,-1.17773 0.12041,0 1.18511,-0.42832 2.36523,-0.95117 1.18011,-0.52285 2.55275,-1.11312 3.05078,-1.3125 0.49803,-0.19938 1.89944,-0.80502 3.11328,-1.34375 1.21391,-0.53873 3.25109,-1.38906 4.52735,-1.89063 2.64632,-1.04002 3.96703,-1.60598 7.65234,-3.27734 1.43865,-0.65245 2.71553,-1.18555 2.83594,-1.18555 0.12042,0 1.18316,-0.42832 2.36328,-0.95117 1.18011,-0.52284 2.5547,-1.11312 3.05274,-1.3125 0.49798,-0.19938 1.89742,-0.80307 3.11132,-1.3418 1.2139,-0.53873 3.25108,-1.391 4.52735,-1.89258 2.64627,-1.04002 3.96898,-1.605975 7.65429,-3.277338 1.43866,-0.652447 2.87449,-1.185546 3.19141,-1.185547 0.31691,0 0.7693,-0.163548 1.00586,-0.363281 0.23657,-0.199732 2.77303,-1.346003 5.63672,-2.546875 2.8637,-1.200871 5.8174,-2.444889 6.56445,-2.763672 0.74705,-0.318778 2.68413,-1.126884 4.30274,-1.796875 1.61856,-0.669986 3.65579,-1.525204 4.52734,-1.90039 0.87156,-0.37519 1.9922,-0.843158 2.49023,-1.041016 2.18775,-0.869142 6.11133,-2.721424 6.11133,-2.884765 0,-0.09851 -1.06961,-0.70408 -2.37695,-1.34375 -7.55569,-3.696981 -10.70337,-12.392517 -7.6875,-21.240235 0.81626,-2.39469 0.82619,-2.603516 0.12305,-2.603515 z m 11.20703,28.978515 c -0.29032,-0.04171 -0.71689,0.0738 -1.06055,0.376953 -0.23657,0.208683 -2.57087,1.250726 -5.18555,2.314453 -2.61463,1.063727 -5.56838,2.295554 -6.56445,2.738282 -0.99607,0.442724 -2.93119,1.25867 -4.30078,1.814453 -3.64032,1.477243 -4.83581,1.979865 -8.60352,3.613281 -1.86763,0.809671 -3.80275,1.63147 -4.30078,1.826172 -0.49803,0.1947 -1.87067,0.78183 -3.05078,1.30468 -1.18012,0.52285 -2.24482,0.95118 -2.36523,0.95118 -0.12042,0 -1.39534,0.52942 -2.83399,1.17773 -1.43865,0.64831 -3.02345,1.34063 -3.52148,1.53906 -0.49803,0.19843 -1.87067,0.78965 -3.05078,1.3125 -1.18012,0.52285 -2.24483,0.95118 -2.36524,0.95117 -0.12042,0 -1.39533,0.52943 -2.83398,1.17774 -1.43865,0.64831 -3.07448,1.36073 -3.63477,1.58398 -0.56028,0.22325 -1.47682,0.58887 -2.03711,0.8125 -1.19015,0.47502 -3.28761,1.37281 -6.45312,2.76368 -1.24509,0.54706 -2.66993,1.15804 -3.16797,1.35742 -0.49803,0.19938 -1.87067,0.7916 -3.05078,1.31445 -1.18012,0.52285 -2.24482,0.94922 -2.36524,0.94922 -0.12041,0 -1.39533,0.53138 -2.83398,1.17969 -1.43866,0.64831 -3.02346,1.34063 -3.52149,1.53906 -0.49804,0.19843 -1.87262,0.78965 -3.05273,1.3125 -1.18012,0.52285 -2.24286,0.94922 -2.36328,0.94922 -0.12041,0 -1.39729,0.53138 -2.83594,1.17969 -1.43866,0.64827 -3.0215,1.33963 -3.51953,1.53711 -0.49804,0.19744 -2.08287,0.89075 -3.52148,1.53906 -1.43865,0.64831 -2.71552,1.17773 -2.83594,1.17773 -0.12041,0 -1.18316,0.42832 -2.36328,0.95117 -1.18011,0.52285 -2.55471,1.11312 -3.05274,1.3125 -0.49803,0.19938 -1.87067,0.78965 -3.05078,1.3125 -1.18012,0.52285 -2.24287,0.95118 -2.36328,0.95118 -0.12042,0 -1.39729,0.53138 -2.83594,1.17968 -1.43865,0.64832 -3.02345,1.33964 -3.52148,1.53711 -0.49803,0.19748 -2.08283,0.88879 -3.52149,1.53711 -1.43861,0.6483 -2.71356,1.17969 -2.83398,1.17969 -0.12041,0 -1.18515,0.42832 -2.36523,0.95117 -1.18011,0.52285 -2.55275,1.11212 -3.05079,1.31055 -0.49803,0.19843 -2.08282,0.89075 -3.52148,1.53906 -1.43865,0.64831 -2.71357,1.17969 -2.83399,1.17969 -0.12037,0 -1.18511,0.42832 -2.36523,0.95117 -1.18011,0.52285 -2.55274,1.11212 -3.05078,1.31055 -0.49803,0.19843 -2.08284,0.89075 -3.52149,1.53906 -1.43862,0.64831 -2.71357,1.17969 -2.83398,1.17969 -0.12042,0 -1.18512,0.42832 -2.36523,0.95117 -1.18012,0.52284 -2.55276,1.11212 -3.05079,1.31055 -0.498,0.19843 -2.08283,0.89074 -3.52148,1.53906 -1.43866,0.64831 -2.79499,1.17969 -3.01367,1.17969 -0.21868,0 -1.17938,0.38973 -2.13672,0.86718 -0.95735,0.47746 -2.1035,0.98166 -2.54492,1.1211 -1.71394,0.5414 -1.66733,0.72786 2.39258,9.55664 0.68706,1.4941 1.70331,3.73538 2.25781,4.98047 1.67814,3.76806 3.19115,7.15051 3.99414,8.92968 0.41855,0.92739 1.01804,1.69127 1.33203,1.69727 0.52433,0.0107 1.52921,-0.39549 6.67383,-2.70313 0.99606,-0.44679 2.62502,-1.1644 3.62109,-1.5957 0.99606,-0.4313 3.03325,-1.34516 4.52735,-2.0293 1.49406,-0.68411 3.43117,-1.55639 4.30273,-1.93945 0.87156,-0.38306 2.80668,-1.24513 4.30078,-1.91601 1.4941,-0.67092 3.37819,-1.50492 4.1875,-1.85157 3.46766,-1.48531 5.05992,-2.19196 12.23828,-5.43554 1.31472,-0.59407 2.47615,-1.08008 2.58008,-1.08008 0.10394,0 1.67557,-0.69019 3.49414,-1.53516 1.81856,-0.84497 4.22318,-1.9439 5.34375,-2.4414 1.12058,-0.49749 3.25981,-1.45739 4.75391,-2.13282 1.4941,-0.67544 3.12502,-1.39093 3.62305,-1.58984 0.49799,-0.19891 2.22904,-0.96751 3.84765,-1.70703 1.61861,-0.73952 3.75785,-1.70029 4.75391,-2.13672 0.99607,-0.43644 3.07262,-1.37969 4.61328,-2.0957 1.54066,-0.71601 2.90061,-1.30274 3.02344,-1.30274 0.12282,0 1.51224,-0.58876 3.08593,-1.30859 3.72336,-1.70306 7.88979,-3.57302 9.87891,-4.43555 0.87156,-0.37793 2.39846,-1.05321 3.39453,-1.5 2.2687,-1.01763 5.84998,-2.5935 7.92383,-3.48633 2.49409,-1.07375 4.96737,-2.1814 8.15039,-3.65234 1.6186,-0.74799 3.70682,-1.69005 4.64063,-2.0918 3.75395,-1.61506 5.2091,-2.25696 7.80859,-3.44726 1.4941,-0.68414 3.43117,-1.55395 4.30273,-1.93164 0.87156,-0.37769 2.80672,-1.23533 4.30078,-1.90625 1.4941,-0.67092 3.42923,-1.52904 4.30079,-1.90821 0.87152,-0.37917 3.07206,-1.3802 4.89062,-2.22461 1.81856,-0.84441 3.39215,-1.53515 3.49609,-1.53515 0.10393,0 1.36547,-0.53258 2.80469,-1.1836 4.8982,-2.2156 7.59646,-3.422 9.1836,-4.10546 0.87151,-0.37534 2.36691,-1.07021 3.32421,-1.54493 0.95735,-0.47472 2.02697,-0.86328 2.37696,-0.86328 1.21937,0 0.62539,-0.72819 -1.06055,-1.29883 -7.41481,-2.50967 -10.98676,-6.76528 -10.97266,-13.072259 0.006,-2.799391 0.56588,-5.346185 1.49415,-6.794922 0.2068,-0.322814 0.054,-0.522737 -0.23633,-0.564453 z m 12.63086,24.898434 c -0.146,0 -1.75371,0.69214 -3.57227,1.53711 -1.81856,0.84497 -4.32522,1.99413 -5.57031,2.55469 -1.96361,0.88406 -3.25484,1.45123 -8.14844,3.57617 -0.49804,0.21626 -2.231,0.99877 -3.84961,1.73828 -2.8141,1.28572 -4.57396,2.06289 -7.81055,3.44922 -0.80928,0.34665 -2.6934,1.17869 -4.1875,1.84961 -1.49407,0.67092 -3.42922,1.53295 -4.30078,1.91601 -0.87156,0.38306 -2.80668,1.25727 -4.30078,1.94141 -1.4941,0.68414 -3.53127,1.59604 -4.52734,2.02734 -0.99607,0.4313 -2.62699,1.14949 -3.62305,1.59571 -0.99607,0.44622 -2.52298,1.12011 -3.39453,1.49804 -0.87156,0.37793 -2.70658,1.19244 -4.07617,1.8086 -1.3696,0.61616 -3.50883,1.57758 -4.75391,2.13672 -1.24508,0.55913 -3.38434,1.52052 -4.7539,2.13672 -1.3696,0.6162 -3.10061,1.37959 -3.84766,1.69726 -1.53396,0.6523 -4.16416,1.82295 -8.15039,3.625 -1.4941,0.67543 -3.12307,1.39094 -3.6211,1.58985 -0.49801,0.19888 -2.23102,0.96556 -3.8496,1.70507 -2.93117,1.33921 -5.339,2.40426 -7.92188,3.50391 -0.74705,0.31805 -2.78618,1.22165 -4.5293,2.00781 -1.74308,0.78616 -3.57618,1.60297 -4.07422,1.81445 -0.498,0.2115 -2.22904,0.98901 -3.84765,1.72852 -2.8141,1.28572 -4.57396,2.06288 -7.81055,3.44922 -0.80931,0.34664 -2.6934,1.18064 -4.1875,1.85156 -1.4941,0.67092 -3.42922,1.53296 -4.30078,1.91602 -0.87156,0.38306 -2.80866,1.25531 -4.30273,1.93945 -1.4941,0.68414 -3.53129,1.5932 -4.52735,2.01953 -0.99607,0.42632 -2.16525,0.96138 -2.59765,1.18946 -0.4324,0.22805 -1.0938,0.41406 -1.47071,0.41406 -0.3769,0 -0.68554,0.2041 -0.68554,0.45312 0,0.24901 -0.267,0.45313 -0.59375,0.45313 -0.32676,0 -1.39638,0.38044 -2.37696,0.8457 -0.98059,0.46526 -2.59769,1.20061 -3.59375,1.63281 -0.99607,0.43221 -2.62697,1.14949 -3.62304,1.59571 -0.99606,0.44622 -2.62503,1.1644 -3.6211,1.5957 -1.87558,0.81213 -6.92837,3.10704 -8.7207,3.96094 -1.31343,0.62573 -1.27298,0.78411 2.16211,8.2539 0.68708,1.4941 1.36887,3.07204 1.51367,3.50782 0.33337,1.00334 0.79801,0.99532 3.14648,-0.0606 1.04466,-0.46968 2.91706,-1.31344 4.16211,-1.87305 1.24509,-0.55961 3.28226,-1.47567 4.52735,-2.03711 1.24508,-0.56143 3.28226,-1.47797 4.52734,-2.03711 1.24509,-0.55913 3.38432,-1.52052 4.75391,-2.13672 1.36959,-0.61619 3.10256,-1.38153 3.84961,-1.69921 1.5949,-0.67821 4.72293,-2.08254 8.82812,-3.96485 7.18105,-3.2926 8.67899,-3.96094 8.8711,-3.96094 0.11253,0 1.95191,-0.81643 4.08789,-1.8125 2.13595,-0.99603 3.9508,-1.81054 4.0332,-1.81054 0.17088,0 4.55976,-1.98618 10.10547,-4.57422 2.07881,-0.97013 3.85456,-1.76367 3.94726,-1.76367 0.0927,0 1.24388,-0.48737 2.5586,-1.08203 1.31471,-0.59465 3.40922,-1.53853 4.6543,-2.09766 5.09908,-2.28989 7.3848,-3.32197 10.10546,-4.56641 1.57373,-0.71983 2.92932,-1.31054 3.01172,-1.31054 0.0824,0 1.85057,-0.78245 3.92969,-1.74024 2.07911,-0.95778 4.97741,-2.2276 6.43945,-2.82226 1.46205,-0.59466 2.75601,-1.33911 2.87696,-1.6543 0.12095,-0.31518 0.39772,-0.57422 0.61328,-0.57422 0.36729,0 1.53813,-0.50832 8.33984,-3.62109 1.4941,-0.68378 3.53131,-1.59605 4.52734,-2.02735 0.99607,-0.4313 2.62503,-1.14891 3.6211,-1.5957 0.99606,-0.44679 2.72904,-1.2186 3.84961,-1.71484 1.12058,-0.49625 3.20877,-1.43433 4.64062,-2.08399 l 5.20703,-2.36133 c 3.59778,-1.63237 6.42906,-2.89387 8.03516,-3.57812 2.0626,-0.87874 5.5806,-2.44905 8.60352,-3.83984 1.49407,-0.68743 3.42923,-1.56254 4.30078,-1.94532 0.87156,-0.38278 2.96524,-1.32491 4.65234,-2.09375 1.6871,-0.76883 3.26503,-1.39844 3.50781,-1.39843 0.82893,-1e-5 0.44208,-0.98631 -1.08593,-2.77149 -1.69287,-1.97769 -2.19501,-4.16902 -1.77344,-7.72851 0.1414,-1.19772 0.1382,-2.17774 -0.008,-2.17774 z M 88.087891,132.44922 c -0.531851,0.0257 -2.430131,0.79721 -6.138672,2.48828 -1.743112,0.79485 -4.188515,1.90175 -5.433594,2.45898 -3.895854,1.74357 -5.771723,2.59394 -9.507813,4.3086 -1.992123,0.91427 -4.029315,1.83266 -4.527343,2.04101 -3.640298,1.52293 -6.564453,3.00581 -6.564453,3.33008 0,0.21178 0.325694,1.12992 0.724609,2.03906 0.398914,0.9092 0.888084,2.06056 1.085937,2.5586 0.197859,0.49803 0.888804,2.08283 1.53711,3.52148 0.648306,1.43866 1.179687,2.71358 1.179687,2.83399 0,0.12042 0.408221,1.13408 0.90625,2.25195 l 1.810547,4.06445 c 0.498034,1.11786 0.904297,2.13154 0.904297,2.25196 0,0.12041 0.531378,1.39532 1.179688,2.83398 0.648306,1.43865 1.341204,3.0235 1.539062,3.52148 0.197858,0.49804 0.668165,1.61868 1.046875,2.49024 0.378716,0.87156 1.527076,3.52106 2.550781,5.88672 1.023705,2.36566 2.038103,4.709 2.253907,5.20703 0.215799,0.49804 0.922006,2.08088 1.570312,3.51953 0.648305,1.43865 1.179688,2.71552 1.179688,2.83594 0,0.12041 0.406267,1.13214 0.904296,2.25 l 1.8125,4.0664 c 0.498034,1.11787 0.904297,2.12958 0.904297,2.25 0,0.12041 0.531382,1.39729 1.179688,2.83594 0.648306,1.43866 1.344504,3.02346 1.546875,3.52149 0.202372,0.49804 0.638069,1.56765 0.96875,2.37695 0.623565,1.52612 1.198186,1.76334 2.537109,1.05273 2.32192,-1.23232 7.877551,-3.6567 9,-3.92773 1.334466,-0.32223 6.609979,-2.58197 13.222659,-5.66406 2.07882,-0.96892 3.85737,-1.76172 3.95117,-1.76172 0.66466,0 6.08608,-2.79734 5.93555,-3.0625 -0.10431,-0.18375 -0.54411,-1.14846 -0.97657,-2.14453 -0.88497,-2.03832 -1.8404,-4.17779 -3.63671,-8.14844 -0.67594,-1.4941 -1.63925,-3.63529 -2.14063,-4.75586 -0.50138,-1.12058 -1.47154,-3.25981 -2.15625,-4.75391 -0.68471,-1.49405 -1.60242,-3.53128 -2.03906,-4.52734 -0.43664,-0.99607 -1.4568,-3.23735 -2.26758,-4.98047 -0.81079,-1.74311 -1.93025,-4.18656 -2.48828,-5.43164 -0.55803,-1.24508 -1.57505,-3.48637 -2.259768,-4.98047 -0.684707,-1.4941 -1.598,-3.53127 -2.029296,-4.52734 -0.871722,-2.0132 -1.803959,-4.10362 -3.634766,-8.15039 -0.67594,-1.4941 -1.636639,-3.63334 -2.136719,-4.75391 -1.514184,-3.39299 -3.198325,-7.00681 -3.349609,-7.1914 -0.02152,-0.0263 -0.06855,-0.0388 -0.144531,-0.0352 z" /><path
         style="fill:#398c80;fill-opacity:1;stroke:none;stroke-width:8.33785"
         d="m 190.93679,383.06233 c -0.91716,-0.3685 -9.54684,-1.44891 -19.17706,-2.40095 -9.63021,-0.95202 -18.8227,-2.10154 -20.42773,-2.5545 -1.60504,-0.45294 -11.17272,-1.75771 -21.26152,-2.89948 -37.287088,-4.21982 -58.841487,-6.87298 -59.263298,-7.29479 -0.430338,-0.43033 -0.113174,-2.65441 4.608161,-32.3141 1.350476,-8.48377 3.573295,-22.74149 4.939598,-31.68384 1.366303,-8.94234 2.699195,-16.82161 2.961982,-17.50948 0.262786,-0.68788 1.426951,-7.62914 2.587033,-15.42503 2.032333,-13.65752 5.355586,-35.00516 8.436866,-54.19603 1.452244,-9.04489 2.323292,-11.27442 4.164933,-10.66054 0.515905,0.17197 1.544365,-0.29368 2.285465,-1.03479 0.7411,-0.7411 1.34746,-1.10625 1.34746,-0.81145 0,0.2948 0.59305,-0.0571 1.31789,-0.78189 0.72485,-0.72484 1.66286,-1.1047 2.08447,-0.84413 0.42161,0.26057 0.76656,0.15626 0.76656,-0.2318 0,-0.38806 0.83865,-0.76873 1.86367,-0.84594 1.02502,-0.0772 1.99507,-0.5346 2.15568,-1.01642 0.1606,-0.48181 0.63516,-0.66394 1.05458,-0.40473 0.41941,0.25921 0.76257,0.13417 0.76257,-0.27786 0,-0.41204 0.9006,-1.1595 2.00134,-1.66103 1.51913,-0.69216 2.36452,-0.64631 3.50866,0.1903 2.0208,1.47765 3.66163,0.71872 3.66163,-1.6936 0,-1.49402 0.33475,-1.84064 1.38746,-1.43667 0.99667,0.38245 1.19882,0.22719 0.71773,-0.55123 -0.44891,-0.72635 -0.29028,-0.95716 0.48111,-0.70003 0.63297,0.21099 1.65345,-0.11899 2.26774,-0.73328 0.6143,-0.6143 1.46185,-0.90371 1.88346,-0.64313 0.42162,0.26056 0.76657,0.0543 0.76657,-0.45844 0,-0.51271 0.3752,-0.70031 0.83379,-0.41689 0.45858,0.28342 0.83378,0.12973 0.83378,-0.34152 0,-0.47125 0.56281,-0.64086 1.25068,-0.37689 0.68787,0.26396 1.25068,0.0424 1.25068,-0.49227 0,-0.53471 0.3752,-0.74031 0.83378,-0.45689 0.45858,0.28342 0.83379,0.0554 0.83379,-0.50665 0,-0.56208 0.23226,-0.78969 0.51615,-0.50581 0.28388,0.28389 1.06454,-0.0322 1.73479,-0.70248 0.67025,-0.67025 1.56359,-1.00545 1.9852,-0.74488 0.42161,0.26057 0.76657,0.0882 0.76657,-0.38306 0,-0.47125 0.5628,-0.64085 1.25067,-0.37689 0.68788,0.26396 1.25068,0.0424 1.25068,-0.49227 0,-0.53471 0.37521,-0.74031 0.83379,-0.45689 0.45858,0.28342 0.83378,0.12974 0.83378,-0.34152 0,-0.47125 0.62436,-0.61723 1.38746,-0.3244 0.8749,0.33573 1.18328,0.20206 0.83477,-0.36185 -0.58837,-0.95201 3.95283,-2.94155 4.79406,-2.10032 0.26828,0.26827 0.48778,0.0279 0.48778,-0.53419 0,-0.56207 0.3752,-0.79006 0.83378,-0.50665 0.45858,0.28342 0.83379,0.12974 0.83379,-0.34151 0,-0.47126 0.62435,-0.61724 1.38745,-0.32441 1.01392,0.38908 1.20158,0.23165 0.69701,-0.58475 -0.50456,-0.8164 -0.31691,-0.97383 0.69701,-0.58476 0.79198,0.30392 1.38745,0.12616 1.38745,-0.41416 0,-0.52062 0.23227,-0.71431 0.51616,-0.43043 0.28388,0.28388 1.06453,-0.0322 1.73479,-0.70248 0.67024,-0.67025 1.56359,-1.00545 1.9852,-0.74488 0.42161,0.26057 0.76656,0.0882 0.76656,-0.38306 0,-0.47125 0.51443,-0.65942 1.14317,-0.41815 0.62874,0.24127 1.70969,-0.12784 2.4021,-0.82025 0.69241,-0.6924 1.4912,-1.02665 1.77508,-0.74277 0.28388,0.28389 0.51615,0.0159 0.51615,-0.59556 0,-0.61144 0.23227,-0.87944 0.51615,-0.59556 0.28388,0.28388 1.06454,-0.0322 1.73479,-0.70248 0.67025,-0.67025 1.53767,-1.02147 1.92759,-0.78048 0.38993,0.24098 0.94841,0.0507 1.24107,-0.42283 0.29267,-0.47355 0.8814,-0.64513 1.3083,-0.38129 0.42689,0.26384 0.77617,0.0602 0.77617,-0.4525 0,-0.51271 0.3752,-0.70031 0.83378,-0.41689 0.45858,0.28342 0.83379,0.12973 0.83379,-0.34152 0,-0.47125 0.62435,-0.61724 1.38745,-0.32441 0.99667,0.38246 1.19882,0.2272 0.71773,-0.55123 -0.44891,-0.72634 -0.29028,-0.95716 0.48112,-0.70003 0.63296,0.21099 1.65344,-0.11898 2.26773,-0.73328 0.6143,-0.61429 1.46186,-0.9037 1.88347,-0.64313 0.42161,0.26057 0.76656,0.0882 0.76656,-0.38306 0,-0.47125 0.51443,-0.65942 1.14317,-0.41815 0.62874,0.24127 1.70969,-0.12784 2.4021,-0.82025 0.6924,-0.69241 1.49119,-1.02665 1.77507,-0.74277 0.28389,0.28388 0.51616,0.0563 0.51616,-0.5058 0,-0.56208 0.34316,-0.80988 0.76257,-0.55066 0.41941,0.25921 0.8912,0.0854 1.04841,-0.38623 0.15721,-0.47163 1.40867,-1.05884 2.78101,-1.30491 1.37235,-0.24607 2.62102,-0.80287 2.77484,-1.23734 0.15382,-0.43446 0.62282,-0.57785 1.04223,-0.31864 0.41941,0.25921 0.76257,0.0518 0.76257,-0.46091 0,-0.51271 0.34135,-0.72123 0.75855,-0.46339 1.07744,0.6659 3.49324,-0.39555 2.93949,-1.29154 -0.40458,-0.65462 1.38159,-1.12923 3.18069,-0.84516 0.34394,0.0543 0.62534,-0.29861 0.62534,-0.78425 0,-0.48565 0.3752,-0.65111 0.83379,-0.36769 0.45858,0.28342 0.83378,0.12974 0.83378,-0.34152 0,-0.47125 0.56281,-0.64085 1.25068,-0.37689 0.68787,0.26396 1.25068,0.0424 1.25068,-0.49227 0,-0.53471 0.3752,-0.74031 0.83378,-0.45689 0.45858,0.28342 0.83379,0.0554 0.83379,-0.50665 0,-0.56207 0.23226,-0.78969 0.51615,-0.5058 0.28388,0.28388 1.02391,0.008 1.64452,-0.61222 0.83573,-0.83573 1.94521,-0.93801 4.27811,-0.39438 1.73236,0.40369 9.153,1.49205 16.49031,2.41858 7.33731,0.92653 16.7506,2.30488 20.91842,3.06299 l 7.57787,1.3784 -0.37605,4.24982 c -0.20683,2.3374 -0.80284,4.67876 -1.32447,5.20301 -0.77688,0.78077 -16.09889,6.73649 -21.58462,8.39002 -0.80251,0.2419 -1.45912,0.96159 -1.45912,1.59932 0,0.63773 2.06362,8.99996 4.58582,18.58274 2.5222,9.58278 4.58582,17.79384 4.58582,18.24681 0,1.00576 -1.60256,1.41937 -15.40533,3.97602 -5.97239,1.10625 -12.16992,2.31212 -13.77228,2.67972 l -2.91337,0.66837 -2.52524,-6.70347 c -5.60166,-14.87007 -16.71626,-24.13945 -33.06968,-27.57949 -11.91552,-2.50651 -22.04016,-1.16915 -32.41249,4.28135 -10.39306,5.4614 -20.80703,18.61734 -19.61929,24.785 1.16133,6.03053 12.56069,14.73877 19.29352,14.73877 4.10244,0 6.74866,-1.81594 10.41812,-7.14932 4.22692,-6.14361 9.66318,-7.95749 17.2444,-5.75382 3.46848,1.00819 5.68397,2.31819 7.95152,4.70165 1.72885,1.81723 2.94785,3.62042 2.70887,4.00709 -0.23897,0.38667 -2.32081,0.96247 -4.6263,1.27955 l -4.1918,0.57652 0.55077,7.29586 0.55076,7.29585 -3.81442,0.96048 c -2.09794,0.52827 -5.05529,0.97695 -6.57191,0.99708 -6.71498,0.0891 -13.06718,4.27774 -17.44708,11.50457 -2.35202,3.88082 -2.79473,5.41086 -2.80623,9.69875 -0.01,3.55099 0.44911,5.79829 1.51611,7.42905 3.68678,5.63471 19.67439,9.17984 25.31439,5.61328 1.77752,-1.12404 3.00097,-2.80829 3.67557,-5.05989 0.55614,-1.85626 1.47199,-3.37502 2.0352,-3.37502 1.29073,0 1.62903,2.47927 3.69757,27.09802 0.92475,11.00596 2.05524,22.26206 2.51219,25.01355 0.45696,2.75149 1.57522,13.81999 2.48503,24.59666 0.90982,10.77668 2.07857,22.24387 2.59722,25.48267 1.16686,7.28652 0.92538,8.71051 -1.32389,7.80681 z m -26.68787,-52.46236 c 4.75799,-2.9406 7.92771,-11.46452 7.92771,-21.31898 0,-4.00117 -0.33054,-4.90442 -2.70981,-7.40515 -4.98165,-5.23594 -19.81363,-8.90118 -25.06836,-6.19483 -5.19073,2.67339 -7.25072,6.23922 -9.28,16.06363 -2.40778,11.65681 1.36201,16.63146 15.23329,20.10195 5.56096,1.39131 10.31958,0.96445 13.89717,-1.24662 z"
         id="path2" /><path
         style="fill:#f4c43f;fill-opacity:1;stroke:none;stroke-width:17.404"
         d="m 202.04382,458.1608 c -0.4789,-3.11097 -2.11338,-18.57879 -3.63218,-34.37294 -3.10307,-32.26928 -6.14667,-62.9387 -11.31287,-113.99632 -7.741,-76.50423 -7.70153,-75.9184 -5.21761,-77.45355 1.27083,-0.78542 9.42467,-2.72155 18.11964,-4.30253 8.69497,-1.58097 42.43718,-8.1909 74.9827,-14.68873 32.54551,-6.49783 59.41994,-11.61882 59.72094,-11.37997 0.301,0.23885 5.57123,40.65235 11.71162,89.80777 6.14039,49.15541 11.57904,92.50621 12.0859,96.33509 3.58049,27.0479 6.39307,53.38156 5.76816,54.00647 -0.72075,0.72077 -22.01037,3.79475 -77.97401,11.2586 -14.83692,1.97881 -38.16822,5.13784 -51.84733,7.02011 -32.59359,4.48492 -31.35754,4.57015 -32.40496,-2.234 z m 78.21289,-52.55673 c 7.68681,-3.21175 10.29542,-8.86905 8.77247,-19.02485 -1.81439,-12.09922 -5.35923,-15.35764 -16.61282,-15.27047 -13.19774,0.10223 -18.14553,4.0521 -18.85853,15.05494 -1.20551,18.60294 9.59551,26.38663 26.69888,19.24038 z m -5.29892,-48.69878 c 4.18437,-1.74834 6.36609,-4.04358 7.34081,-7.72276 0.82511,-3.1145 3.85435,-6.86618 7.47832,-9.26183 7.49043,-4.95159 15.66361,-20.34752 15.66361,-29.50575 0,-16.87754 -13.56845,-36.52351 -28.66617,-41.5062 -10.76793,-3.55374 -30.28163,-1.49972 -40.03078,4.21366 -13.01114,7.62504 -24.54221,29.17086 -20.07708,37.51404 4.1244,7.70651 21.22557,11.63226 26.72324,6.1346 1.42598,-1.42599 3.1103,-4.94933 3.74292,-7.82965 1.47112,-6.69794 6.89018,-10.46247 15.06076,-10.46247 7.96238,0 11.91988,3.7076 11.91988,11.16718 0,6.14378 -2.68867,9.31417 -11.82468,13.94326 -16.88966,8.55777 -16.36133,35.80362 0.69428,35.80362 3.31155,0 8.70025,-1.11946 11.97489,-2.4877 z"
         id="path3" /><path
         id="path4"
         style="fill:#f4f4f4;fill-opacity:1;stroke:none;stroke-width:17.404"
         d="m 388.33398,126.17969 c -0.83784,0 -28.6438,9.87239 -61.78906,21.93945 -33.14525,12.06705 -61.04669,22.07405 -62.0039,22.23828 -6.01309,1.03163 -23.48984,8.79539 -23.46094,10.42188 0.0474,2.67046 8.20188,34.27415 9.0664,35.13867 0.37972,0.37972 12.77979,-1.6831 27.55664,-4.58399 24.97156,-4.90224 27.29734,-5.6923 32.95899,-11.1914 18.73929,-18.2013 49.11969,-18.40728 66.05273,-0.44922 17.0147,18.04465 16.65632,46.06786 -0.76757,59.9707 -3.97006,3.16779 -5.76081,5.85196 -5.16211,7.73828 1.70263,5.36453 -6.31749,12.18083 -15.56055,13.22266 l -8.40625,0.94727 0.91992,6.85546 c 1.14769,8.5567 1.41902,8.80786 7.17578,6.61915 7.57014,-2.87816 19.21923,-2.21211 22.37891,1.27929 3.85219,4.25663 7.24789,17.94063 5.8418,23.54297 -1.56103,6.21963 -10.22044,10.53831 -21.4336,10.6875 -8.61498,0.1146 -8.97301,0.30809 -8.27539,4.4707 1.21138,7.22812 5.9668,46.52483 5.9668,49.30469 0,2.87944 1.41791,2.58992 32.19726,-6.5957 8.61499,-2.57101 26.14813,-7.7263 38.96094,-11.45508 12.81281,-3.72876 23.70508,-7.18946 24.20703,-7.69141 0.83115,-0.83113 -9.64478,-38.56284 -50.63867,-182.375 -7.84465,-27.52007 -14.9473,-50.03515 -15.78516,-50.03515 z m -43.05468,92.21093 c -2.00284,0 -3.8848,0.21125 -4.83203,0.63672 -1.42369,0.63948 -1.46099,0.7605 -1.125,3.57422 0.19121,1.60135 0.58699,4.93534 0.8789,7.41016 0.2919,2.47482 0.7489,6.28703 1.01563,8.4707 0.26672,2.18366 0.63273,5.45796 0.81445,7.27539 l 0.33203,3.30469 1.92383,-1.46875 c 1.05806,-0.8073 2.54234,-1.77957 3.29883,-2.16016 1.57239,-0.79107 3.51002,-2.36781 6.60547,-5.375 1.96928,-1.91313 2.47801,-2.6857 4.05468,-6.14453 0.50249,-1.10233 0.32494,-4.4776 -0.42578,-8.09179 -0.50347,-2.42385 -4.12395,-5.95038 -6.97656,-6.79493 -1.43709,-0.42547 -3.56162,-0.63672 -5.56445,-0.63672 z" /><path
         style="fill:#f4f4f4;fill-opacity:1;stroke:none;stroke-width:2.54551"
         d="m 452.40421,228.61561 c -0.0997,-0.96431 -0.34258,-1.99944 -0.53971,-2.3003 -0.25367,-0.38715 -0.38654,-1.63472 -0.45466,-4.26878 -0.0777,-3.00505 -0.17716,-3.81207 -0.51649,-4.19076 -0.34229,-0.38199 -0.4362,-1.18428 -0.50621,-4.32466 -0.0721,-3.23539 -0.15763,-3.93478 -0.53143,-4.34742 -0.245,-0.27046 -0.44546,-0.7227 -0.44546,-1.00499 0,-0.28228 -0.24109,-0.73146 -0.53576,-0.99816 -0.4505,-0.40775 -1.02659,-0.49958 -3.62012,-0.57703 -2.44116,-0.0729 -3.14565,-0.17594 -3.37828,-0.49409 -0.23223,-0.31759 -0.95505,-0.42438 -3.44368,-0.50876 -2.34937,-0.0797 -3.26206,-0.20589 -3.5917,-0.49675 -0.32643,-0.28803 -1.25795,-0.42202 -3.56372,-0.5126 -1.71697,-0.0675 -3.25763,-0.2309 -3.42369,-0.36322 -0.16605,-0.13232 -0.62424,-0.33733 -1.0182,-0.45559 -0.51631,-0.15498 -0.006,-0.22711 1.82922,-0.25837 3.28999,-0.056 5.54429,-0.34197 5.67002,-0.71919 0.0681,-0.20415 1.00419,-0.30533 2.9423,-0.318 3.35322,-0.0219 5.57796,-0.29675 5.71435,-0.70592 0.0657,-0.19699 0.97651,-0.2937 2.76621,-0.2937 3.10326,0 3.65305,-0.19946 3.65305,-1.3253 0,-0.43907 0.20046,-1.01949 0.44546,-1.28985 0.35169,-0.38806 0.46362,-1.06214 0.53167,-3.20193 0.0656,-2.06205 0.18601,-2.82183 0.50343,-3.17631 0.31595,-0.35282 0.4405,-1.12517 0.51312,-3.18189 0.0724,-2.04964 0.19786,-2.83093 0.51152,-3.18456 0.31526,-0.35543 0.43852,-1.1373 0.51041,-3.23751 0.0671,-1.95909 0.19829,-2.85481 0.44871,-3.06265 0.19467,-0.16156 0.3675,-0.652 0.38406,-1.08987 l 0.0301,-0.79612 0.19432,0.76365 c 0.10687,0.42001 0.20787,1.35101 0.22443,2.06888 0.0174,0.75218 0.1759,1.42621 0.37417,1.59076 0.24547,0.20373 0.38467,1.31175 0.48583,3.86733 0.10388,2.62402 0.24175,3.69612 0.5156,4.00937 0.27457,0.31407 0.40742,1.35891 0.50044,3.93597 0.0994,2.75296 0.21572,3.60683 0.54039,3.96559 0.22756,0.25145 0.41375,0.87773 0.41375,1.39171 0,1.59642 0.61178,1.95273 3.35276,1.95273 1.82053,0 2.43765,0.0933 2.80276,0.42372 0.35443,0.32075 1.1325,0.45263 3.20194,0.54272 1.50355,0.0654 2.80788,0.2348 2.89852,0.37633 0.21946,0.3427 2.23919,0.65973 4.32233,0.67847 1.11034,0.01 1.78699,0.1356 1.97941,0.36745 0.18012,0.21702 1.14493,0.42801 2.51304,0.54956 1.78031,0.15817 2.05694,0.23331 1.39496,0.37891 -0.45415,0.0999 -0.96961,0.2983 -1.14548,0.4409 -0.17587,0.14261 -1.88612,0.30344 -3.80055,0.3574 -2.84354,0.0801 -3.56955,0.17843 -3.96559,0.53684 -0.39908,0.36116 -0.9988,0.43898 -3.39209,0.44015 -2.89114,0.001 -4.81643,0.31088 -4.81643,0.77419 0,0.13807 -1.1307,0.24259 -2.62414,0.24259 -3.50598,0 -3.58558,0.0638 -3.70378,2.97045 -0.0503,1.23632 -0.20984,2.32201 -0.35458,2.41264 -0.36709,0.22987 -0.66634,2.26404 -0.68431,4.65164 -0.0104,1.38339 -0.13067,2.14399 -0.3831,2.42292 -0.25296,0.27951 -0.42262,1.35955 -0.54299,3.45648 -0.0963,1.67747 -0.303,3.21048 -0.45937,3.40669 -0.15636,0.19622 -0.34307,1.05533 -0.41489,1.90914 l -0.13059,1.55238 z"
         id="path6" /><path
         style="fill:#f4f4f4;fill-opacity:1;stroke:none;stroke-width:3.10465"
         d="m 142.34638,105.01486 c -0.001,-0.89647 -0.21061,-2.03012 -0.46569,-2.51922 -0.32615,-0.62535 -0.46436,-1.86921 -0.4657,-4.191275 -10e-4,-2.322069 -0.13955,-3.565923 -0.4657,-4.191281 -0.28603,-0.54843 -0.46378,-1.745382 -0.46378,-3.122929 0,-1.316686 -0.15932,-2.436307 -0.38809,-2.727286 -0.27987,-0.35599 -1.09743,-0.531072 -2.93215,-0.627927 -1.43152,-0.07557 -2.75583,-0.31004 -3.02829,-0.53616 -0.28519,-0.236688 -1.66404,-0.460609 -3.35476,-0.544804 -1.5788,-0.07862 -3.3108,-0.340468 -3.84887,-0.581881 -0.59237,-0.265772 -2.00701,-0.438933 -3.58587,-0.438933 -1.67223,0 -2.74668,-0.139206 -2.9954,-0.388081 -0.21331,-0.213445 -1.25415,-0.47156 -2.31297,-0.573589 -1.89116,-0.182234 -1.87759,-0.186342 0.76927,-0.232849 1.85861,-0.03266 2.8309,-0.18385 3.13447,-0.487417 0.32346,-0.32346 1.52543,-0.467434 4.53585,-0.543315 2.67121,-0.06733 4.17302,-0.228567 4.31787,-0.463572 0.14231,-0.230895 1.55998,-0.398183 3.9465,-0.465698 3.30128,-0.09339 3.83905,-0.187127 4.73342,-0.825051 0.94943,-0.67719 1.0096,-0.833022 1.01889,-2.638954 0.006,-1.193139 0.18233,-2.147272 0.4657,-2.52192 0.31658,-0.418563 0.45582,-1.397414 0.45582,-3.204445 0,-1.898749 0.12584,-2.727629 0.4657,-3.067489 0.3409,-0.340903 0.4657,-1.172868 0.4657,-3.104652 0,-1.931783 0.12479,-2.763749 0.46569,-3.104652 0.25614,-0.256134 0.4657,-0.995056 0.4657,-1.64205 0,-0.646994 0.0893,-1.827868 0.19845,-2.624165 0.17346,-1.265516 0.24699,-1.378472 0.58402,-0.897111 0.22999,0.328481 0.43318,1.94251 0.50354,3.999861 0.0649,1.897038 0.27212,3.643405 0.46053,3.880815 0.18841,0.23741 0.43573,2.034584 0.5496,3.99372 0.13357,2.298264 0.36881,3.808971 0.663,4.257974 0.3142,0.479528 0.45598,1.550015 0.45598,3.44284 v 2.746932 l 1.55529,0.679108 c 1.14831,0.501405 2.18412,0.681692 3.95843,0.688982 1.61927,0.0067 2.59972,0.158557 3.0058,0.465698 0.42248,0.319552 1.40888,0.455824 3.29948,0.455824 1.89447,0 2.80105,0.125568 3.0471,0.422047 0.22161,0.267023 1.32069,0.482589 2.9922,0.586871 1.45307,0.09065 2.81443,0.307498 3.02525,0.481877 0.21082,0.174379 0.80244,0.378337 1.31471,0.453239 l 0.9314,0.136187 -0.99816,0.04652 c -0.54899,0.02559 -1.59681,0.24079 -2.32849,0.478234 -0.73168,0.237444 -2.85273,0.516789 -4.71344,0.620766 -1.90323,0.106354 -3.58036,0.352752 -3.83403,0.563286 -0.26749,0.221998 -1.97512,0.443084 -4.19773,0.543479 -2.59531,0.11723 -3.78646,0.288509 -3.87585,0.557324 -0.0799,0.240345 -0.71015,0.388081 -1.65551,0.388081 -1.25578,0 -1.52645,0.09785 -1.52645,0.551849 0,0.30352 -0.20555,0.84531 -0.45677,1.203981 -0.28182,0.40235 -0.53573,1.826045 -0.66293,3.717045 -0.11339,1.685705 -0.35439,3.251983 -0.53556,3.480619 -0.18117,0.228636 -0.38245,1.695584 -0.44729,3.259877 -0.11378,2.74526 -0.60066,4.50512 -1.49337,5.39783 -0.64695,0.64695 -0.7505,0.47712 -0.75251,-1.23416 z"
         id="path7" /><path
         style="fill:#f4f4f4;fill-opacity:1;stroke:none;stroke-width:3.10465"
         d="m 47.966874,263.03734 c -0.768401,-0.38183 -1.508817,-0.86888 -1.645369,-1.08232 -0.136552,-0.21345 -0.381043,-0.38808 -0.543314,-0.38808 -0.390737,0 -1.536899,-1.15767 -1.536899,-1.55233 0,-0.17076 -0.209564,-0.31047 -0.465698,-0.31047 -0.256134,0 -0.465698,-0.26943 -0.465698,-0.59875 0,-0.32931 -0.209564,-0.80832 -0.465698,-1.06445 -0.256133,-0.25614 -0.465697,-0.89929 -0.465697,-1.42924 0,-0.52995 -0.186404,-1.41311 -0.41423,-1.96259 -0.340115,-0.82029 -0.342621,-1.16568 -0.014,-1.93043 0.220124,-0.51227 0.406528,-1.45969 0.414229,-2.10539 0.0089,-0.74717 0.183312,-1.23895 0.479701,-1.35269 0.256134,-0.0983 0.46744,-0.40825 0.469569,-0.6888 0.005,-0.66071 2.192725,-3.01608 3.055833,-3.29002 0.366233,-0.11624 0.665879,-0.32609 0.665879,-0.46634 0,-0.14024 0.488982,-0.34672 1.086628,-0.45884 0.597645,-0.11212 1.086628,-0.33723 1.086628,-0.50025 0,-0.16475 1.160949,-0.2964 2.613794,-0.2964 2.480713,0 3.111641,0.15886 5.147836,1.29617 0.256134,0.14306 0.656811,0.35035 0.890395,0.46064 0.857972,0.40509 2.835188,2.50916 2.835188,3.01708 0,0.28793 0.209564,0.60393 0.465697,0.70222 0.2826,0.10844 0.465698,0.57792 0.465698,1.1941 0,0.55847 0.209564,1.18932 0.465698,1.40189 0.30969,0.25702 0.465698,0.95322 0.465698,2.07821 0,1.0898 -0.165698,1.85742 -0.465698,2.15742 -0.256134,0.25614 -0.465698,0.92976 -0.465698,1.49694 0,0.63025 -0.18108,1.10072 -0.465698,1.20994 -0.256133,0.0983 -0.465697,0.33235 -0.465697,0.52015 0,0.59286 -2.697806,2.955 -4.359605,3.81717 -1.372857,0.71226 -1.973125,0.82771 -4.284456,0.82401 -2.153135,-0.003 -2.965883,-0.14244 -4.085013,-0.69855 z"
         id="path8" /><path
         style="fill:#f4f4f4;fill-opacity:1;stroke:none;stroke-width:2.3523"
         d="m 156.20275,453.52363 c -0.1095,-0.25875 -0.3328,-0.62924 -0.49622,-0.82331 -0.20454,-0.2429 -0.32167,-1.53636 -0.3759,-4.15113 -0.0648,-3.12367 -0.14785,-3.8757 -0.46774,-4.23414 -0.31961,-0.35813 -0.40351,-1.11316 -0.47046,-4.23374 -0.0689,-3.21203 -0.14499,-3.86804 -0.49314,-4.25266 -0.32192,-0.35565 -0.41165,-0.87712 -0.41165,-2.39237 0,-2.46646 -0.19441,-2.84759 -1.45253,-2.84759 -0.64824,0 -1.06428,-0.13527 -1.26604,-0.41165 -0.25326,-0.34692 -0.77341,-0.42407 -3.30772,-0.49065 -2.4664,-0.0648 -3.10465,-0.15565 -3.54907,-0.50523 -0.43403,-0.34141 -1.18532,-0.45965 -3.77512,-0.59416 -2.33972,-0.12152 -3.34328,-0.26488 -3.63143,-0.51877 -0.28896,-0.2546 -1.22133,-0.38639 -3.39897,-0.48043 -2.15389,-0.093 -2.84004,-0.18906 -2.43122,-0.34029 0.31327,-0.11589 0.64793,-0.33775 0.7437,-0.49302 0.11963,-0.19397 1.43447,-0.31913 4.20132,-0.39994 3.39199,-0.0991 4.07219,-0.17922 4.31242,-0.50821 0.24156,-0.33079 0.88317,-0.40282 4.19061,-0.47046 3.31641,-0.0678 3.97391,-0.14194 4.35975,-0.49151 0.34753,-0.31487 0.86805,-0.41166 2.21391,-0.41166 2.40588,0 2.63126,-0.19605 2.74228,-2.38546 0.0532,-1.0501 0.26504,-2.10729 0.5384,-2.68745 0.35316,-0.74952 0.45063,-1.48165 0.45063,-3.3849 0,-2.04156 0.0656,-2.47641 0.41165,-2.72908 0.34289,-0.25035 0.42506,-0.76383 0.49191,-3.07408 0.0643,-2.22341 0.16366,-2.87957 0.50078,-3.30815 0.31966,-0.40638 0.46114,-1.18455 0.58984,-3.24425 0.0931,-1.4903 0.23825,-2.70802 0.32252,-2.70604 0.54575,0.0128 0.68276,0.63556 0.82006,3.7271 0.12449,2.80309 0.23062,3.50828 0.6237,4.1443 0.41157,0.66594 0.47368,1.17001 0.47368,3.8444 0,2.8943 0.24026,4.27625 0.74345,4.27625 0.10861,0 0.19892,1.29671 0.20068,2.88157 0.002,1.58486 0.0682,3.12398 0.14752,3.42025 0.21065,0.78637 1.26272,1.22554 2.93587,1.22554 1.0623,0 1.58772,0.11257 1.91719,0.41073 0.36381,0.32924 0.99751,0.42724 3.19413,0.49399 2.12797,0.0647 2.83763,0.16999 3.17595,0.47139 0.33514,0.29856 1.03622,0.40673 3.03826,0.46878 2.07791,0.0644 2.72513,0.16915 3.2104,0.51964 0.46518,0.33598 1.22879,0.47671 3.25414,0.59971 1.45549,0.0884 2.64472,0.22504 2.64274,0.30366 -0.0135,0.53689 -0.64621,0.68178 -3.64247,0.83415 -2.47722,0.12598 -3.43893,0.26509 -3.88129,0.56144 -0.4619,0.30943 -1.35262,0.41919 -4.15131,0.51157 -2.88576,0.0953 -3.64607,0.19245 -3.99891,0.51119 -0.35495,0.32064 -1.06043,0.40782 -3.80717,0.47046 -3.80336,0.0867 -4.03826,0.19577 -4.03826,1.87439 0,0.5976 -0.13345,0.95893 -0.41165,1.11459 -0.35032,0.196 -0.42918,0.70226 -0.52927,3.39804 -0.0948,2.5543 -0.19612,3.25443 -0.52302,3.61547 -0.3194,0.35277 -0.43827,1.09403 -0.56036,3.49413 -0.11147,2.19151 -0.2539,3.16016 -0.50756,3.45184 -0.25226,0.29007 -0.39776,1.26073 -0.51126,3.41083 -0.1046,1.9814 -0.22649,2.84509 -0.35775,2.53492 z"
         id="path9" /><path
         style="fill:#f4f4f4;fill-opacity:1;stroke:none;stroke-width:2.3523"
         d="m 281.29043,481.1924 c -0.15156,-0.24268 -0.65336,-0.51211 -1.11512,-0.59874 -0.50566,-0.0949 -0.83957,-0.2936 -0.83957,-0.49969 0,-0.1882 -0.098,-0.34218 -0.21775,-0.34218 -0.37243,0 -2.55447,-2.29168 -2.72886,-2.86598 -0.091,-0.29967 -0.35131,-0.75657 -0.57847,-1.01532 -0.35871,-0.40859 -0.78578,-2.92179 -0.7395,-4.35176 0.0771,-2.38226 0.3693,-4.03782 0.74849,-4.24076 0.23093,-0.12358 0.49,-0.54402 0.57572,-0.9343 0.0857,-0.39028 0.35895,-0.8183 0.60719,-0.95115 0.24824,-0.13286 0.45134,-0.38426 0.45134,-0.55869 0,-0.17442 0.21171,-0.37249 0.47046,-0.44016 0.25875,-0.0677 0.47046,-0.27045 0.47046,-0.45064 0,-0.18019 0.36039,-0.45793 0.80087,-0.61721 0.44048,-0.15928 0.86057,-0.44518 0.93354,-0.63533 0.0765,-0.19928 0.43569,-0.34573 0.84804,-0.34573 0.42428,0 0.87929,-0.19144 1.1182,-0.47046 0.35773,-0.4178 0.69391,-0.47046 3.00341,-0.47046 2.3095,0 2.64568,0.0527 3.00341,0.47046 0.22613,0.2641 0.69391,0.47046 1.06646,0.47046 0.365,0 0.89088,0.21171 1.16862,0.47046 0.27773,0.25875 0.59804,0.47046 0.71179,0.47046 0.11375,0 0.62098,0.47345 1.12718,1.05212 0.5062,0.57867 1.05268,1.05501 1.2144,1.05854 0.16172,0.004 0.29404,0.20384 0.29404,0.44515 0,0.2413 0.2117,0.70788 0.47046,1.03683 0.25875,0.32895 0.47046,0.92645 0.47046,1.32779 0,0.4386 0.18768,0.89039 0.47046,1.13252 0.39561,0.33873 0.47046,0.69391 0.47046,2.23238 0,1.51592 -0.0806,1.91021 -0.47046,2.30002 -0.31331,0.31331 -0.47046,0.7841 -0.47046,1.40939 0,0.68417 -0.12765,1.01865 -0.47046,1.23273 -0.25876,0.1616 -0.47046,0.4172 -0.47046,0.56801 0,0.31745 -2.21136,2.67063 -2.50968,2.67063 -0.10995,0 -0.33213,0.2117 -0.49372,0.47046 -0.16566,0.26526 -0.54857,0.47046 -0.8779,0.47046 -0.32933,0 -0.71223,0.20519 -0.87789,0.47046 -0.27263,0.43653 -0.54857,0.47046 -3.82671,0.47046 -3.20013,0 -3.55885,-0.0416 -3.80845,-0.44123 z"
         id="path10" /><path
         style="fill:#f4f4f4;fill-opacity:1;stroke:none;stroke-width:2.51179"
         d="m 350.70907,106.10232 c -0.24176,-0.26479 -0.70462,-0.48143 -1.02858,-0.48143 -0.32396,0 -0.7936,-0.22606 -1.04365,-0.50236 -0.25004,-0.2763 -0.59903,-0.50236 -0.77554,-0.50236 -0.1765,0 -0.39266,-0.22606 -0.48035,-0.50236 -0.0877,-0.27629 -0.31376,-0.50236 -0.50236,-0.50236 -0.1886,0 -0.41467,-0.22606 -0.50236,-0.50235 -0.0877,-0.2763 -0.30724,-0.50236 -0.48789,-0.50236 -0.18064,0 -0.39948,-0.35518 -0.4863,-0.78928 -0.0868,-0.4341 -0.31161,-0.91448 -0.49954,-1.06751 -0.57917,-0.47162 -0.91913,-4.020625 -0.6041,-6.30654 0.15232,-1.105189 0.42327,-2.09728 0.60213,-2.204647 0.17886,-0.107367 0.39883,-0.587747 0.48884,-1.067512 0.09,-0.479764 0.31299,-0.872299 0.49553,-0.872299 0.18254,0 0.40364,-0.226061 0.49133,-0.502358 0.0877,-0.276298 0.32137,-0.502359 0.51929,-0.502359 0.19791,0 0.35984,-0.172344 0.35984,-0.382986 0,-0.210642 0.28257,-0.490421 0.62795,-0.621731 0.34537,-0.13131 0.62794,-0.349452 0.62794,-0.48476 0,-0.135308 0.3972,-0.320529 0.88267,-0.411603 0.48546,-0.09107 0.98615,-0.350514 1.11263,-0.576535 0.34464,-0.615834 6.52454,-0.608079 7.20917,0.009 0.25627,0.230997 0.77677,0.49757 1.15668,0.592384 0.37991,0.09481 0.69074,0.276713 0.69074,0.404221 0,0.127508 0.19781,0.306222 0.43957,0.397142 0.50032,0.188159 2.57458,2.244713 2.57458,2.552608 0,0.111435 0.22607,0.407191 0.50236,0.657237 0.31163,0.282021 0.50236,0.773624 0.50236,1.294826 0,0.505292 0.20024,1.04044 0.50236,1.342556 0.41305,0.413051 0.50236,0.837265 0.50236,2.386204 0,1.548939 -0.0893,1.973152 -0.50236,2.386203 -0.2763,0.276297 -0.50236,0.82761 -0.50236,1.225139 0,0.39753 -0.16517,0.85986 -0.36704,1.0274 -0.20187,0.16754 -0.43261,0.5112 -0.51274,0.76369 -0.18472,0.58199 -2.11707,2.6069 -2.69952,2.82882 -0.24176,0.0921 -0.43957,0.34058 -0.43957,0.55214 0,0.26875 -0.25315,0.38465 -0.84019,0.38465 -0.52121,0 -1.01281,0.19073 -1.29483,0.50236 -0.40722,0.44997 -0.75836,0.50017 -3.36706,0.48142 -2.53373,-0.0182 -2.96958,-0.0835 -3.35199,-0.50235 z"
         id="path11" /></g></g></svg>
